<svg width="560" height="521" viewBox="0 0 560 521" fill="none" xmlns="http://www.w3.org/2000/svg">
<g clip-path="url(#clip0_153_1906)">
<path d="M0.00624768 276.668C0.00260185 277.151 0.00156018 277.633 -2.32225e-06 278.115C-0.102086 342.807 15.8099 433.086 113.151 448.348C179.453 458.743 229.159 421.623 270.665 384.503C308.975 350.241 340.301 315.981 371.247 319.079C404.259 322.381 442.108 326.764 472.524 314.747C501.52 303.288 524.667 282.144 539.063 259.367C590.467 178.029 539.451 88.888 445.555 41.4547C320.303 -21.82 140.541 -17.4213 60.2812 87.8587C18.3047 142.921 0.379164 212.115 0.00624768 276.668Z" fill="#1024D6"/>
<path d="M135.592 450.121C128.329 450.121 120.848 449.555 113.151 448.348C16.0954 433.131 -0.00777748 343.335 -0.000485807 278.684C-0.000485807 278.493 3.50265e-05 278.304 3.50265e-05 278.115C0.00159753 277.633 0.0026392 277.151 0.00628503 276.668C0.379202 212.115 18.3047 142.921 60.2812 87.8587C106.554 27.1614 185.887 -0.00129153 268.792 -0.00129153C329.687 -0.00129153 392.515 14.66 445.555 41.4547C513.868 75.964 559.484 132.551 559.473 192.147C559.471 214.464 553.068 237.205 539.063 259.367C529.304 274.807 515.523 289.497 498.624 300.929V115.245C498.624 114.588 498.596 113.945 498.543 113.304C497.556 99.0227 485.656 87.74 471.131 87.7387H88.3438C73.8208 87.74 61.923 99.0187 60.9328 113.295C60.8782 113.94 60.8506 114.587 60.8506 115.245V213.675C59.1891 213.963 57.5792 214.401 56.036 214.976C55.6907 215.104 55.5151 215.488 55.6438 215.833C55.7438 216.101 55.9979 216.267 56.2683 216.268C56.3459 216.268 56.4246 216.253 56.5011 216.225C57.8974 215.705 59.3516 215.303 60.8506 215.029V332.885C60.8511 345.196 68.947 355.62 80.1036 359.123V371.673C80.1042 380.793 87.4964 388.184 96.6167 388.185H181.141C181.088 388.79 181.015 389.388 180.921 389.979C180.864 390.343 181.112 390.684 181.476 390.741C181.511 390.747 181.545 390.751 181.58 390.751C181.903 390.751 182.187 390.516 182.239 390.186C182.343 389.528 182.423 388.86 182.479 388.185H223.02C232.139 388.184 239.532 380.793 239.532 371.673V360.379H273.959C273.336 364.125 272.827 367.303 272.461 369.5C271.467 375.473 270.083 381.145 269.184 385.825C232.817 418.188 190.147 450.124 135.592 450.121ZM150.195 411.752C149.827 411.752 149.528 412.049 149.528 412.419C149.528 412.786 149.827 413.085 150.195 413.085H155.397L155.532 413.084C155.9 413.083 156.196 412.783 156.195 412.415C156.193 412.048 155.895 411.751 155.528 411.751C155.527 411.751 155.527 411.751 155.525 411.751L155.399 411.752H150.195ZM139.528 411.752C139.16 411.752 138.861 412.049 138.861 412.419C138.861 412.786 139.16 413.085 139.528 413.085H144.861C145.229 413.085 145.528 412.786 145.528 412.419C145.528 412.049 145.229 411.752 144.861 411.752H139.528ZM128.861 411.752C128.493 411.752 128.195 412.049 128.195 412.419C128.195 412.786 128.493 413.085 128.861 413.085H134.195C134.563 413.085 134.861 412.786 134.861 412.419C134.861 412.049 134.563 411.752 134.195 411.752H128.861ZM118.195 411.752C117.827 411.752 117.528 412.049 117.528 412.419C117.528 412.786 117.827 413.085 118.195 413.085H123.528C123.896 413.085 124.195 412.786 124.195 412.419C124.195 412.049 123.896 411.752 123.528 411.752H118.195ZM107.528 411.752C107.16 411.752 106.861 412.049 106.861 412.419C106.861 412.786 107.16 413.085 107.528 413.085H112.861C113.23 413.085 113.528 412.786 113.528 412.419C113.528 412.049 113.23 411.752 112.861 411.752H107.528ZM96.8615 411.752C96.4932 411.752 96.1948 412.049 96.1948 412.419C96.1948 412.786 96.4932 413.085 96.8615 413.085H102.195C102.563 413.085 102.861 412.786 102.861 412.419C102.861 412.049 102.563 411.752 102.195 411.752H96.8615ZM86.1948 411.752C85.8266 411.752 85.5282 412.049 85.5282 412.419C85.5282 412.786 85.8266 413.085 86.1948 413.085H91.5282C91.8964 413.085 92.1948 412.786 92.1948 412.419C92.1948 412.049 91.8964 411.752 91.5282 411.752H86.1948ZM75.5282 411.752C75.1599 411.752 74.8615 412.049 74.8615 412.419C74.8615 412.786 75.1599 413.085 75.5282 413.085H80.8615C81.2298 413.085 81.5282 412.786 81.5282 412.419C81.5282 412.049 81.2298 411.752 80.8615 411.752H75.5282ZM64.8615 411.744C64.5006 411.744 64.2036 412.032 64.1954 412.393C64.186 412.763 64.4771 413.068 64.8454 413.076C65.0688 413.083 65.2932 413.085 65.5178 413.085H70.1948C70.5631 413.085 70.8615 412.786 70.8615 412.419C70.8615 412.049 70.5631 411.752 70.1948 411.752H65.5178C65.3036 411.752 65.0907 411.749 64.8782 411.744C64.8724 411.744 64.8667 411.744 64.8615 411.744ZM165.896 409.591C165.808 409.591 165.719 409.608 165.632 409.645C164.059 410.325 162.404 410.853 160.685 411.21C160.325 411.285 160.093 411.639 160.169 411.998C160.235 412.314 160.512 412.529 160.821 412.529C160.865 412.529 160.912 412.525 160.957 412.516C162.764 412.14 164.505 411.585 166.161 410.869C166.499 410.724 166.655 410.332 166.509 409.993C166.4 409.741 166.155 409.591 165.896 409.591ZM54.5386 409.377C54.2855 409.377 54.0432 409.523 53.9318 409.768C53.7792 410.103 53.9271 410.498 54.262 410.652C55.9042 411.4 57.6339 411.99 59.4318 412.4C59.4818 412.412 59.5318 412.417 59.5812 412.417C59.885 412.417 60.1594 412.208 60.2303 411.9C60.3126 411.54 60.088 411.183 59.7292 411.102C58.0203 410.709 56.376 410.149 54.8146 409.439C54.7251 409.397 54.6312 409.377 54.5386 409.377ZM174.587 403.532C174.411 403.532 174.235 403.602 174.104 403.739C172.909 404.992 171.589 406.125 170.165 407.119C169.864 407.329 169.789 407.745 170 408.047C170.129 408.233 170.337 408.332 170.547 408.332C170.679 408.332 170.812 408.293 170.928 408.212C172.425 407.168 173.813 405.976 175.069 404.659C175.323 404.392 175.313 403.971 175.047 403.716C174.917 403.593 174.752 403.532 174.587 403.532ZM45.9708 403.149C45.8099 403.149 45.6484 403.207 45.5203 403.324C45.249 403.573 45.2307 403.995 45.4792 404.267C46.7099 405.609 48.0735 406.827 49.5495 407.902C49.6678 407.986 49.8052 408.028 49.9412 408.028C50.147 408.028 50.35 407.933 50.4807 407.753C50.6974 407.456 50.6312 407.039 50.3339 406.823C48.9298 405.802 47.6328 404.643 46.462 403.365C46.3307 403.223 46.1511 403.149 45.9708 403.149ZM180.221 394.563C179.952 394.563 179.699 394.728 179.597 394.995C178.984 396.629 178.209 398.185 177.292 399.644C177.096 399.955 177.189 400.367 177.501 400.563C177.612 400.632 177.735 400.665 177.856 400.665C178.077 400.665 178.295 400.555 178.421 400.353C179.385 398.82 180.2 397.184 180.845 395.464C180.975 395.119 180.801 394.735 180.456 394.605C180.379 394.576 180.3 394.563 180.221 394.563ZM40.5136 394.069C40.4402 394.069 40.3651 394.083 40.2918 394.108C39.9448 394.231 39.7626 394.612 39.885 394.959C40.497 396.692 41.2798 398.344 42.2126 399.896C42.3375 400.104 42.5584 400.219 42.7844 400.219C42.9016 400.219 43.0198 400.188 43.1276 400.123C43.4427 399.933 43.5448 399.524 43.3552 399.208C42.4683 397.733 41.724 396.163 41.1422 394.515C41.0459 394.241 40.7886 394.069 40.5136 394.069ZM39.0088 383.577C38.6407 383.577 38.3422 383.876 38.3422 384.244V385.911C38.3422 387.18 38.4292 388.431 38.5979 389.655C38.6438 389.99 38.9298 390.231 39.2579 390.231C39.288 390.231 39.3188 390.228 39.3495 390.224C39.714 390.175 39.9694 389.837 39.9188 389.473C39.7584 388.308 39.6755 387.119 39.6755 385.911V384.244C39.6755 383.876 39.3766 383.577 39.0088 383.577ZM39.0088 372.911C38.6407 372.911 38.3422 373.208 38.3422 373.577V378.911C38.3422 379.279 38.6407 379.577 39.0088 379.577C39.3766 379.577 39.6755 379.279 39.6755 378.911V373.577C39.6755 373.208 39.3766 372.911 39.0088 372.911ZM39.0088 362.244C38.6407 362.244 38.3422 362.541 38.3422 362.911V368.244C38.3422 368.612 38.6407 368.911 39.0088 368.911C39.3766 368.911 39.6755 368.612 39.6755 368.244V362.911C39.6755 362.541 39.3766 362.244 39.0088 362.244ZM39.0088 351.577C38.6407 351.577 38.3422 351.875 38.3422 352.244V357.577C38.3422 357.945 38.6407 358.244 39.0088 358.244C39.3766 358.244 39.6755 357.945 39.6755 357.577V352.244C39.6755 351.875 39.3766 351.577 39.0088 351.577ZM39.0088 340.911C38.6407 340.911 38.3422 341.209 38.3422 341.577V346.911C38.3422 347.279 38.6407 347.577 39.0088 347.577C39.3766 347.577 39.6755 347.279 39.6755 346.911V341.577C39.6755 341.209 39.3766 340.911 39.0088 340.911ZM39.0088 330.244C38.6407 330.244 38.3422 330.543 38.3422 330.911V336.244C38.3422 336.612 38.6407 336.911 39.0088 336.911C39.3766 336.911 39.6755 336.612 39.6755 336.244V330.911C39.6755 330.543 39.3766 330.244 39.0088 330.244ZM39.0088 319.577C38.6407 319.577 38.3422 319.876 38.3422 320.244V325.577C38.3422 325.945 38.6407 326.244 39.0088 326.244C39.3766 326.244 39.6755 325.945 39.6755 325.577V320.244C39.6755 319.876 39.3766 319.577 39.0088 319.577ZM39.0088 308.911C38.6407 308.911 38.3422 309.209 38.3422 309.577V314.911C38.3422 315.279 38.6407 315.577 39.0088 315.577C39.3766 315.577 39.6755 315.279 39.6755 314.911V309.577C39.6755 309.209 39.3766 308.911 39.0088 308.911ZM39.0088 298.244C38.6407 298.244 38.3422 298.543 38.3422 298.911V304.244C38.3422 304.612 38.6407 304.911 39.0088 304.911C39.3766 304.911 39.6755 304.612 39.6755 304.244V298.911C39.6755 298.543 39.3766 298.244 39.0088 298.244ZM39.0088 287.577C38.6407 287.577 38.3422 287.876 38.3422 288.244V293.577C38.3422 293.945 38.6407 294.244 39.0088 294.244C39.3766 294.244 39.6755 293.945 39.6755 293.577V288.244C39.6755 287.876 39.3766 287.577 39.0088 287.577ZM39.0088 276.911C38.6407 276.911 38.3422 277.209 38.3422 277.577V282.911C38.3422 283.279 38.6407 283.577 39.0088 283.577C39.3766 283.577 39.6755 283.279 39.6755 282.911V277.577C39.6755 277.209 39.3766 276.911 39.0088 276.911ZM39.0088 266.244C38.6407 266.244 38.3422 266.543 38.3422 266.911V272.244C38.3422 272.612 38.6407 272.911 39.0088 272.911C39.3766 272.911 39.6755 272.612 39.6755 272.244V266.911C39.6755 266.543 39.3766 266.244 39.0088 266.244ZM39.0088 255.577C38.6407 255.577 38.3422 255.876 38.3422 256.244V261.577C38.3422 261.945 38.6407 262.244 39.0088 262.244C39.3766 262.244 39.6755 261.945 39.6755 261.577V256.244C39.6755 255.876 39.3766 255.577 39.0088 255.577ZM39.0088 244.911C38.6407 244.911 38.3422 245.209 38.3422 245.577V250.911C38.3422 251.279 38.6407 251.577 39.0088 251.577C39.3766 251.577 39.6755 251.279 39.6755 250.911V245.577C39.6755 245.209 39.3766 244.911 39.0088 244.911ZM39.5792 234.285C39.2708 234.285 38.9938 234.5 38.9276 234.815C38.5579 236.567 38.3574 238.381 38.3427 240.239C38.3402 240.607 38.636 240.908 39.0042 240.911C39.0063 240.911 39.0079 240.911 39.0094 240.911C39.3755 240.911 39.6735 240.615 39.676 240.249C39.6896 238.48 39.8807 236.756 40.2323 235.089C40.3084 234.729 40.0776 234.376 39.7178 234.3C39.6708 234.289 39.6251 234.285 39.5792 234.285ZM43.8047 224.573C43.5948 224.573 43.3886 224.672 43.2588 224.857C42.2172 226.341 41.3203 227.935 40.5886 229.616C40.4418 229.953 40.5959 230.347 40.9334 230.493C41.0203 230.531 41.1104 230.548 41.1995 230.548C41.4568 230.548 41.7016 230.399 41.811 230.148C42.5068 228.549 43.3594 227.035 44.35 225.623C44.5615 225.321 44.4886 224.907 44.187 224.695C44.0708 224.613 43.937 224.573 43.8047 224.573ZM51.4918 217.285C51.3714 217.285 51.249 217.319 51.1391 217.387H51.1396C49.5891 218.355 48.1438 219.476 46.824 220.727C46.5568 220.98 46.5454 221.401 46.799 221.669C46.9298 221.808 47.1063 221.877 47.2828 221.877C47.4474 221.877 47.6126 221.816 47.7412 221.695C48.997 220.504 50.3714 219.439 51.8459 218.517C52.1579 218.323 52.2531 217.911 52.0579 217.599C51.9312 217.396 51.714 217.285 51.4918 217.285Z" fill="#8690F0"/>
<path d="M72.0678 213.276H66.7344C66.3662 213.276 66.0678 213.575 66.0678 213.943C66.0678 214.311 66.3662 214.609 66.7344 214.609H72.0678C72.436 214.609 72.7344 214.311 72.7344 213.943C72.7344 213.575 72.436 213.276 72.0678 213.276ZM61.3167 213.599C59.4902 213.881 57.7235 214.348 56.036 214.976C55.6907 215.104 55.5151 215.488 55.6438 215.833C55.7724 216.179 56.1563 216.353 56.5011 216.225C58.1052 215.628 59.7844 215.185 61.5214 214.916C61.885 214.86 62.1344 214.519 62.0782 214.155C62.0214 213.791 61.6807 213.541 61.3167 213.599ZM51.1396 217.387C49.5891 218.355 48.1438 219.476 46.824 220.727C46.5568 220.98 46.5454 221.401 46.799 221.669C47.0522 221.936 47.474 221.948 47.7412 221.695C48.997 220.504 50.3714 219.439 51.8459 218.517C52.1579 218.323 52.2531 217.911 52.0579 217.599C51.8631 217.287 51.4516 217.192 51.1391 217.387H51.1396ZM43.2588 224.857C42.2172 226.341 41.3203 227.935 40.5886 229.616C40.4418 229.953 40.5959 230.347 40.9334 230.493C41.2708 230.64 41.664 230.485 41.811 230.148C42.5068 228.549 43.3594 227.035 44.35 225.623C44.5615 225.321 44.4886 224.907 44.187 224.695C43.886 224.483 43.4703 224.556 43.2588 224.857ZM38.9276 234.815C38.5579 236.567 38.3574 238.381 38.3427 240.239C38.3402 240.607 38.636 240.908 39.0042 240.911C39.3724 240.913 39.6735 240.617 39.676 240.249C39.6896 238.48 39.8807 236.756 40.2323 235.089C40.3084 234.729 40.0776 234.376 39.7178 234.3C39.3574 234.224 39.0036 234.455 38.9276 234.815ZM38.3422 245.577V250.911C38.3422 251.279 38.6407 251.577 39.0088 251.577C39.3766 251.577 39.6755 251.279 39.6755 250.911V245.577C39.6755 245.209 39.3766 244.911 39.0088 244.911C38.6407 244.911 38.3422 245.209 38.3422 245.577ZM38.3422 256.244V261.577C38.3422 261.945 38.6407 262.244 39.0088 262.244C39.3766 262.244 39.6755 261.945 39.6755 261.577V256.244C39.6755 255.876 39.3766 255.577 39.0088 255.577C38.6407 255.577 38.3422 255.876 38.3422 256.244ZM38.3422 266.911V272.244C38.3422 272.612 38.6407 272.911 39.0088 272.911C39.3766 272.911 39.6755 272.612 39.6755 272.244V266.911C39.6755 266.543 39.3766 266.244 39.0088 266.244C38.6407 266.244 38.3422 266.543 38.3422 266.911ZM38.3422 277.577V282.911C38.3422 283.279 38.6407 283.577 39.0088 283.577C39.3766 283.577 39.6755 283.279 39.6755 282.911V277.577C39.6755 277.209 39.3766 276.911 39.0088 276.911C38.6407 276.911 38.3422 277.209 38.3422 277.577ZM38.3422 288.244V293.577C38.3422 293.945 38.6407 294.244 39.0088 294.244C39.3766 294.244 39.6755 293.945 39.6755 293.577V288.244C39.6755 287.876 39.3766 287.577 39.0088 287.577C38.6407 287.577 38.3422 287.876 38.3422 288.244ZM38.3422 298.911V304.244C38.3422 304.612 38.6407 304.911 39.0088 304.911C39.3766 304.911 39.6755 304.612 39.6755 304.244V298.911C39.6755 298.543 39.3766 298.244 39.0088 298.244C38.6407 298.244 38.3422 298.543 38.3422 298.911ZM38.3422 309.577V314.911C38.3422 315.279 38.6407 315.577 39.0088 315.577C39.3766 315.577 39.6755 315.279 39.6755 314.911V309.577C39.6755 309.209 39.3766 308.911 39.0088 308.911C38.6407 308.911 38.3422 309.209 38.3422 309.577ZM38.3422 320.244V325.577C38.3422 325.945 38.6407 326.244 39.0088 326.244C39.3766 326.244 39.6755 325.945 39.6755 325.577V320.244C39.6755 319.876 39.3766 319.577 39.0088 319.577C38.6407 319.577 38.3422 319.876 38.3422 320.244ZM38.3422 330.911V336.244C38.3422 336.612 38.6407 336.911 39.0088 336.911C39.3766 336.911 39.6755 336.612 39.6755 336.244V330.911C39.6755 330.543 39.3766 330.244 39.0088 330.244C38.6407 330.244 38.3422 330.543 38.3422 330.911ZM38.3422 341.577V346.911C38.3422 347.279 38.6407 347.577 39.0088 347.577C39.3766 347.577 39.6755 347.279 39.6755 346.911V341.577C39.6755 341.209 39.3766 340.911 39.0088 340.911C38.6407 340.911 38.3422 341.209 38.3422 341.577ZM38.3422 352.244V357.577C38.3422 357.945 38.6407 358.244 39.0088 358.244C39.3766 358.244 39.6755 357.945 39.6755 357.577V352.244C39.6755 351.875 39.3766 351.577 39.0088 351.577C38.6407 351.577 38.3422 351.875 38.3422 352.244ZM38.3422 362.911V368.244C38.3422 368.612 38.6407 368.911 39.0088 368.911C39.3766 368.911 39.6755 368.612 39.6755 368.244V362.911C39.6755 362.541 39.3766 362.244 39.0088 362.244C38.6407 362.244 38.3422 362.541 38.3422 362.911ZM38.3422 373.577V378.911C38.3422 379.279 38.6407 379.577 39.0088 379.577C39.3766 379.577 39.6755 379.279 39.6755 378.911V373.577C39.6755 373.208 39.3766 372.911 39.0088 372.911C38.6407 372.911 38.3422 373.208 38.3422 373.577ZM38.3422 384.244V385.911C38.3422 387.18 38.4292 388.431 38.5979 389.655C38.6484 390.02 38.985 390.275 39.3495 390.224C39.714 390.175 39.9694 389.837 39.9188 389.473C39.7584 388.308 39.6755 387.119 39.6755 385.911V384.244C39.6755 383.876 39.3766 383.577 39.0088 383.577C38.6407 383.577 38.3422 383.876 38.3422 384.244ZM39.885 394.959C40.497 396.692 41.2798 398.344 42.2126 399.896C42.4027 400.21 42.812 400.314 43.1276 400.123C43.4427 399.933 43.5448 399.524 43.3552 399.208C42.4683 397.733 41.724 396.163 41.1422 394.515C41.0198 394.168 40.6391 393.985 40.2918 394.108C39.9448 394.231 39.7626 394.612 39.885 394.959ZM45.4792 404.267C46.7099 405.609 48.0735 406.827 49.5495 407.902C49.8474 408.117 50.264 408.052 50.4807 407.753C50.6974 407.456 50.6312 407.039 50.3339 406.823C48.9298 405.802 47.6328 404.643 46.462 403.365C46.2136 403.095 45.7918 403.076 45.5203 403.324C45.249 403.573 45.2307 403.995 45.4792 404.267ZM54.262 410.652C55.9042 411.4 57.6339 411.99 59.4318 412.4C59.7907 412.483 60.1479 412.259 60.2303 411.9C60.3126 411.54 60.088 411.183 59.7292 411.102C58.0203 410.709 56.376 410.149 54.8146 409.439C54.4798 409.285 54.0844 409.433 53.9318 409.768C53.7792 410.103 53.9271 410.498 54.262 410.652ZM64.8454 413.076C65.0688 413.083 65.2932 413.085 65.5178 413.085H70.1948C70.5631 413.085 70.8615 412.786 70.8615 412.419C70.8615 412.049 70.5631 411.752 70.1948 411.752H65.5178C65.3036 411.752 65.0907 411.749 64.8782 411.744C64.5099 411.735 64.2042 412.025 64.1954 412.393C64.186 412.763 64.4771 413.068 64.8454 413.076ZM75.5282 413.085H80.8615C81.2298 413.085 81.5282 412.786 81.5282 412.419C81.5282 412.049 81.2298 411.752 80.8615 411.752H75.5282C75.1599 411.752 74.8615 412.049 74.8615 412.419C74.8615 412.786 75.1599 413.085 75.5282 413.085ZM86.1948 413.085H91.5282C91.8964 413.085 92.1948 412.786 92.1948 412.419C92.1948 412.049 91.8964 411.752 91.5282 411.752H86.1948C85.8266 411.752 85.5282 412.049 85.5282 412.419C85.5282 412.786 85.8266 413.085 86.1948 413.085ZM96.8615 413.085H102.195C102.563 413.085 102.861 412.786 102.861 412.419C102.861 412.049 102.563 411.752 102.195 411.752H96.8615C96.4932 411.752 96.1948 412.049 96.1948 412.419C96.1948 412.786 96.4932 413.085 96.8615 413.085ZM107.528 413.085H112.862C113.23 413.085 113.528 412.786 113.528 412.419C113.528 412.049 113.23 411.752 112.862 411.752H107.528C107.16 411.752 106.862 412.049 106.862 412.419C106.862 412.786 107.16 413.085 107.528 413.085ZM118.195 413.085H123.528C123.896 413.085 124.195 412.786 124.195 412.419C124.195 412.049 123.896 411.752 123.528 411.752H118.195C117.827 411.752 117.528 412.049 117.528 412.419C117.528 412.786 117.827 413.085 118.195 413.085ZM128.862 413.085H134.195C134.563 413.085 134.861 412.786 134.861 412.419C134.861 412.049 134.563 411.752 134.195 411.752H128.862C128.493 411.752 128.195 412.049 128.195 412.419C128.195 412.786 128.493 413.085 128.862 413.085ZM139.528 413.085H144.861C145.229 413.085 145.528 412.786 145.528 412.419C145.528 412.049 145.229 411.752 144.861 411.752H139.528C139.16 411.752 138.861 412.049 138.861 412.419C138.861 412.786 139.16 413.085 139.528 413.085ZM150.195 413.085H155.397L155.532 413.084C155.9 413.083 156.196 412.783 156.195 412.415C156.193 412.047 155.893 411.749 155.525 411.751L155.399 411.752H150.195C149.827 411.752 149.528 412.049 149.528 412.419C149.528 412.786 149.827 413.085 150.195 413.085ZM160.957 412.516C162.764 412.14 164.505 411.585 166.161 410.869C166.499 410.724 166.655 410.332 166.509 409.993C166.363 409.656 165.971 409.5 165.632 409.645C164.059 410.325 162.404 410.853 160.685 411.21C160.325 411.285 160.093 411.639 160.169 411.998C160.244 412.359 160.596 412.591 160.957 412.516ZM170.928 408.212C172.425 407.168 173.813 405.976 175.069 404.659C175.323 404.392 175.313 403.971 175.047 403.716C174.78 403.463 174.359 403.472 174.104 403.739C172.909 404.992 171.589 406.125 170.165 407.119C169.864 407.329 169.789 407.745 170 408.047C170.211 408.349 170.627 408.423 170.928 408.212ZM178.421 400.353C179.385 398.82 180.2 397.184 180.845 395.464C180.975 395.119 180.801 394.735 180.456 394.605C180.112 394.476 179.727 394.651 179.597 394.995C178.984 396.629 178.209 398.185 177.292 399.644C177.096 399.955 177.189 400.367 177.501 400.563C177.813 400.759 178.225 400.665 178.421 400.353ZM182.239 390.186C182.459 388.793 182.573 387.365 182.573 385.911C182.573 385.543 182.275 385.244 181.907 385.244C181.539 385.244 181.24 385.543 181.24 385.911C181.24 387.295 181.131 388.653 180.921 389.979C180.864 390.343 181.112 390.684 181.476 390.741C181.84 390.798 182.181 390.551 182.239 390.186Z" fill="#17282F"/>
<path d="M175.203 76.6934V71.3601C175.203 70.9908 174.904 70.6934 174.536 70.6934C174.168 70.6934 173.869 70.9908 173.869 71.3601V76.6934C173.869 77.0614 174.168 77.3601 174.536 77.3601C174.904 77.3601 175.203 77.0614 175.203 76.6934ZM175.203 66.0268V60.6934C175.203 60.3241 174.904 60.0268 174.536 60.0268C174.168 60.0268 173.869 60.3241 173.869 60.6934V66.0268C173.869 66.3948 174.168 66.6934 174.536 66.6934C174.904 66.6934 175.203 66.3948 175.203 66.0268ZM175.203 55.3601V50.0268C175.203 49.6574 174.904 49.3601 174.536 49.3601C174.168 49.3601 173.869 49.6574 173.869 50.0268V55.3601C173.869 55.7281 174.168 56.0268 174.536 56.0268C174.904 56.0268 175.203 55.7281 175.203 55.3601ZM175.513 44.8481C175.859 43.1468 176.481 41.5468 177.332 40.0948C177.519 39.7774 177.412 39.3695 177.095 39.1828C176.777 38.9961 176.368 39.1028 176.183 39.4201C175.259 40.9961 174.581 42.7348 174.207 44.5828C174.133 44.9441 174.367 45.2961 174.728 45.3695C175.088 45.4428 175.44 45.2095 175.513 44.8481ZM180.589 36.1815C181.871 35.0735 183.335 34.1708 184.929 33.5241C185.271 33.3868 185.436 32.9974 185.297 32.6561C185.159 32.3148 184.771 32.1508 184.429 32.2881C182.697 32.9908 181.108 33.9708 179.717 35.1735C179.439 35.4148 179.408 35.8361 179.649 36.1148C179.891 36.3921 180.312 36.4228 180.589 36.1815ZM189.896 32.4161C190.185 32.4001 190.477 32.3921 190.772 32.3921H195.192C195.56 32.3921 195.859 32.0934 195.859 31.7254C195.859 31.3574 195.56 31.0588 195.192 31.0588H190.772C190.453 31.0588 190.136 31.0668 189.823 31.0841C189.455 31.1054 189.173 31.4188 189.193 31.7868C189.213 32.1548 189.528 32.4361 189.896 32.4161ZM200.525 32.3921H205.859C206.227 32.3921 206.525 32.0934 206.525 31.7254C206.525 31.3574 206.227 31.0588 205.859 31.0588H200.525C200.157 31.0588 199.859 31.3574 199.859 31.7254C199.859 32.0934 200.157 32.3921 200.525 32.3921ZM211.192 32.3921H216.525C216.893 32.3921 217.192 32.0934 217.192 31.7254C217.192 31.3574 216.893 31.0588 216.525 31.0588H211.192C210.824 31.0588 210.525 31.3574 210.525 31.7254C210.525 32.0934 210.824 32.3921 211.192 32.3921ZM221.859 32.3921H227.192C227.56 32.3921 227.859 32.0934 227.859 31.7254C227.859 31.3574 227.56 31.0588 227.192 31.0588H221.859C221.491 31.0588 221.192 31.3574 221.192 31.7254C221.192 32.0934 221.491 32.3921 221.859 32.3921ZM232.525 32.3921H237.859C238.227 32.3921 238.525 32.0934 238.525 31.7254C238.525 31.3574 238.227 31.0588 237.859 31.0588H232.525C232.157 31.0588 231.859 31.3574 231.859 31.7254C231.859 32.0934 232.157 32.3921 232.525 32.3921ZM243.192 32.3921H248.525C248.893 32.3921 249.192 32.0934 249.192 31.7254C249.192 31.3574 248.893 31.0588 248.525 31.0588H243.192C242.824 31.0588 242.525 31.3574 242.525 31.7254C242.525 32.0934 242.824 32.3921 243.192 32.3921ZM253.859 32.3921H259.192C259.56 32.3921 259.859 32.0934 259.859 31.7254C259.859 31.3574 259.56 31.0588 259.192 31.0588H253.859C253.491 31.0588 253.192 31.3574 253.192 31.7254C253.192 32.0934 253.491 32.3921 253.859 32.3921ZM264.525 32.3921H269.859C270.227 32.3921 270.525 32.0934 270.525 31.7254C270.525 31.3574 270.227 31.0588 269.859 31.0588H264.525C264.157 31.0588 263.859 31.3574 263.859 31.7254C263.859 32.0934 264.157 32.3921 264.525 32.3921ZM275.192 32.3921H280.525C280.893 32.3921 281.192 32.0934 281.192 31.7254C281.192 31.3574 280.893 31.0588 280.525 31.0588H275.192C274.824 31.0588 274.525 31.3574 274.525 31.7254C274.525 32.0934 274.824 32.3921 275.192 32.3921ZM285.859 32.3921H291.192C291.56 32.3921 291.859 32.0934 291.859 31.7254C291.859 31.3574 291.56 31.0588 291.192 31.0588H285.859C285.491 31.0588 285.192 31.3574 285.192 31.7254C285.192 32.0934 285.491 32.3921 285.859 32.3921ZM296.525 32.3921H301.859C302.227 32.3921 302.525 32.0934 302.525 31.7254C302.525 31.3574 302.227 31.0588 301.859 31.0588H296.525C296.157 31.0588 295.859 31.3574 295.859 31.7254C295.859 32.0934 296.157 32.3921 296.525 32.3921ZM307.192 32.3921H307.655C309.257 32.3921 310.801 32.6335 312.255 33.0815C312.607 33.1908 312.98 32.9935 313.088 32.6415C313.197 32.2895 313 31.9161 312.648 31.8081C311.069 31.3201 309.392 31.0588 307.655 31.0588H307.192C306.824 31.0588 306.525 31.3574 306.525 31.7254C306.525 32.0934 306.824 32.3921 307.192 32.3921ZM316.805 35.3628C318.185 36.3668 319.395 37.5934 320.38 38.9881C320.592 39.2881 321.008 39.3601 321.309 39.1481C321.611 38.9348 321.681 38.5188 321.469 38.2188C320.4 36.7041 319.088 35.3748 317.589 34.2841C317.292 34.0681 316.875 34.1334 316.659 34.4308C316.441 34.7281 316.508 35.1454 316.805 35.3628ZM322.596 43.5695C323.005 44.9615 323.224 46.4348 323.224 47.9601C323.224 48.3281 323.523 48.6268 323.891 48.6268C324.259 48.6268 324.557 48.3281 324.557 47.9601C324.557 46.3068 324.32 44.7054 323.876 43.1934C323.772 42.8401 323.401 42.6388 323.048 42.7415C322.695 42.8455 322.493 43.2161 322.596 43.5695Z" fill="#17282F"/>
<path d="M503.723 488.584C503.723 506.451 403.441 520.933 279.737 520.933C156.033 520.933 55.7511 506.451 55.7511 488.584C55.7511 470.717 156.033 456.235 279.737 456.235C403.441 456.235 503.723 470.717 503.723 488.584Z" fill="#1024D6"/>
<path d="M279.737 520.933C156.033 520.933 55.7511 506.451 55.7511 488.584C55.7511 470.717 156.033 456.235 279.737 456.235C403.441 456.235 503.723 470.717 503.723 488.584C503.723 506.451 403.441 520.933 279.737 520.933Z" fill="#8690F0"/>
<path d="M497.957 115.245V332.885C497.957 347.699 485.944 359.712 471.131 359.712H88.3437C73.5307 359.712 61.5172 347.699 61.5172 332.885V115.245C61.5172 114.605 61.5437 113.979 61.5973 113.352C62.5573 99.4187 74.1708 88.4054 88.3437 88.4054H471.131C485.304 88.4054 496.917 99.4187 497.877 113.352C497.929 113.979 497.957 114.605 497.957 115.245Z" fill="white"/>
<path d="M497.957 115.245H497.291V332.885C497.291 340.109 494.363 346.645 489.628 351.383C484.891 356.117 478.355 359.045 471.131 359.045H88.3438C81.1194 359.045 74.5839 356.117 69.847 351.383C65.1115 346.645 62.1845 340.109 62.1839 332.885V115.245C62.1839 114.624 62.2099 114.016 62.2615 113.408L62.2626 113.397C63.1979 99.8133 74.5241 89.0707 88.3438 89.072H471.131C484.951 89.0707 496.276 99.8133 497.212 113.397L497.213 113.407C497.264 114.016 497.291 114.624 497.291 115.245H497.957H498.624C498.624 114.585 498.596 113.94 498.543 113.297L497.877 113.352L498.543 113.305C497.557 99.024 485.657 87.74 471.131 87.7387H88.3438C73.8178 87.74 61.9173 99.024 60.9323 113.305L61.5974 113.352L60.9329 113.295C60.8782 113.94 60.8506 114.587 60.8506 115.245V332.885C60.8511 348.067 73.1626 360.379 88.3438 360.379H471.131C486.313 360.379 498.624 348.067 498.624 332.885V115.245H497.957Z" fill="#17282F"/>
<path d="M461.129 349.593H99.7126C85.8271 349.593 74.5714 338.337 74.5714 324.452V123.407H486.271V324.452C486.271 338.337 475.015 349.593 461.129 349.593Z" fill="#17282F"/>
<path d="M461.124 348.932H422.357C419.977 343.625 417.353 338.203 414.525 332.995L424.731 325.685L417.864 309.537C420.051 306.859 421.904 303.912 423.369 300.779L440.877 299.819L443.544 283.752L427.277 277.204C426.904 273.779 426.117 270.419 424.944 267.179L436.649 254.139L427.171 240.885L411.024 247.739C408.344 245.592 405.424 243.779 402.304 242.325L401.357 224.805L385.277 222.152L378.691 238.352C375.277 238.752 371.929 239.539 368.703 240.699L366.059 238.332C365.972 235.14 367.004 231.652 367.004 231.652L364.924 229.816C372.151 227.029 378.208 220.257 377.337 212.036C376.979 208.647 374.487 206.211 371.253 205.405C370.489 205.216 369.739 205.133 369 205.133C365.611 205.133 362.457 206.88 359.283 208.079C357.723 208.667 356.168 208.901 354.619 208.901C349.168 208.901 343.759 206.001 338.212 205.405C337.085 205.284 335.911 205.211 334.725 205.211C329.501 205.211 324.056 206.625 321.472 211.563C321.472 211.563 310.531 212.847 305.737 221.835C300.944 230.82 310.055 243.261 310.055 243.261C310.055 243.261 310.577 242.631 311.479 242.327L311.261 242.557C311.261 242.557 308.656 244.86 309.692 250.68C309.904 251.872 310.173 253.029 310.484 254.12L303.355 254.453C302.036 252.256 300.46 250.221 298.673 248.405L302.533 235.943L292.015 229.917L283.213 239.52C280.736 238.913 278.195 238.595 275.635 238.555L269.541 227.004L257.849 230.185L258.467 243.231C256.271 244.548 254.233 246.124 252.407 247.905L239.939 244.057L239.532 244.765V227.912H249.157L253.917 206.659C258.024 205.499 261.971 203.845 265.691 201.765L284.077 213.459L298.384 199.152L286.771 180.765C288.837 177.032 290.476 173.085 291.637 168.979L312.917 164.232V143.992L291.637 139.272C290.476 135.165 288.851 131.192 286.771 127.459L288.916 124.08H485.604V324.453C485.604 331.212 482.867 337.327 478.436 341.76C474.004 346.192 467.888 348.932 461.124 348.932ZM275.939 348.932H239.532V288.468L247.277 288.101C248.579 290.307 250.143 292.337 251.941 294.157L248.061 306.556L258.581 312.583L267.337 303.061C269.823 303.685 272.364 304.004 274.932 304.02L281.008 315.577L285.129 314.456C281.855 319.133 278.475 334.953 275.939 348.932ZM80.1036 339.092C78.1818 336.517 76.7536 333.552 75.962 330.337L80.1036 334.935V339.092ZM75.2438 320V300.828L78.1104 301.64C78.6031 303.831 79.2703 305.976 80.1036 308.055V313.2L75.2438 320ZM292.591 309.993L292.189 301.255L292.101 299.344C294.321 298.035 296.371 296.464 298.221 294.661L310.679 298.535L315.827 289.537L316.704 288.015L307.055 279.224C307.679 276.74 308.001 274.187 308.029 271.621L319.571 265.553L318.675 262.265C319.081 262.279 319.337 262.279 319.337 262.279C319.337 262.279 322.273 268.64 324.915 272.66L323.637 280.352L326.277 281.419L326.68 281.58C326.72 282.431 326.759 283.305 326.789 284.175C324.749 284.627 322.544 285.677 321.099 287.971C321.091 287.983 321.083 287.995 321.076 288.007C321.073 288.011 321.071 288.016 321.068 288.02C321.056 288.039 321.045 288.056 321.035 288.075C320.033 290.667 319.829 294.007 319.829 296.307C319.829 297.9 319.927 298.993 319.927 298.993C319.927 298.993 319.688 299.088 319.235 299.248C315.939 300.476 301.579 305.88 292.591 309.993ZM383.565 303.029C377.005 303.029 370.543 299.975 366.437 294.232C359.664 284.792 361.851 271.645 371.291 264.885C375.003 262.227 379.284 260.948 383.525 260.948C390.084 260.948 396.545 264.005 400.649 269.739C407.424 279.192 405.237 292.339 395.797 299.099C392.085 301.752 387.804 303.029 383.565 303.029ZM275.283 286.892C268.387 286.892 262.072 282.305 260.18 275.343C257.907 266.988 262.839 258.38 271.176 256.115C272.553 255.739 273.939 255.56 275.301 255.56C282.197 255.56 288.512 260.147 290.404 267.109C292.677 275.464 287.747 284.072 279.408 286.337C278.031 286.712 276.645 286.892 275.283 286.892ZM75.2438 278.784V124.08H189.328L191.384 127.352C189.291 131.072 187.664 135.032 186.531 139.152L165.251 143.885V164.125L186.531 168.872C187.601 172.791 189.113 176.579 191.043 180.147H96.6167C87.4964 180.147 80.1042 187.54 80.1036 196.659V249.54L75.3104 253.853L80.1036 262.323V276.28C79.8703 276.879 79.6506 277.483 79.4438 278.093L75.2438 278.784ZM239.532 272.54V259.676L243.56 263.337C242.936 265.823 242.617 268.365 242.607 270.921L239.532 272.54ZM239.184 180.259C224.744 180.259 213.037 168.552 213.037 154.112C213.037 139.672 224.744 127.965 239.184 127.965C253.624 127.965 265.331 139.672 265.331 154.112C265.331 168.552 253.624 180.259 239.184 180.259Z" fill="#AAC2CC"/>
<path d="M497.877 113.352H61.5974C62.5574 99.4187 74.1709 88.4054 88.3438 88.4054H471.131C485.304 88.4054 496.917 99.4187 497.877 113.352Z" fill="#1024D6"/>
<path d="M497.877 113.352V112.685H61.5973V113.352L62.2625 113.397C63.1979 99.8134 74.524 89.0707 88.3437 89.072H471.131C484.951 89.0707 496.276 99.8134 497.213 113.397L497.877 113.352L498.543 113.305C497.557 99.024 485.657 87.74 471.131 87.7387H88.3437C73.8177 87.74 61.9172 99.024 60.9323 113.305L60.8828 114.019H498.592L498.543 113.305L497.877 113.352Z" fill="#17282F"/>
<path d="M115.209 100.879C115.209 103.503 113.082 105.631 110.458 105.631C107.833 105.631 105.706 103.503 105.706 100.879C105.706 98.2548 107.833 96.1267 110.458 96.1267C113.082 96.1267 115.209 98.2548 115.209 100.879Z" fill="#17282F"/>
<path d="M135.301 100.879C135.301 103.503 133.174 105.631 130.549 105.631C127.925 105.631 125.797 103.503 125.797 100.879C125.797 98.2548 127.925 96.1267 130.549 96.1267C133.174 96.1267 135.301 98.2548 135.301 100.879Z" fill="#17282F"/>
<path d="M155.392 100.879C155.392 103.503 153.265 105.631 150.641 105.631C148.016 105.631 145.889 103.503 145.889 100.879C145.889 98.2548 148.016 96.1267 150.641 96.1267C153.265 96.1267 155.392 98.2548 155.392 100.879Z" fill="#17282F"/>
<path d="M486.271 123.413H485.604V324.453C485.604 331.212 482.867 337.327 478.436 341.76C474.004 346.192 467.888 348.932 461.124 348.932H99.7104C87.8213 348.933 77.9177 340.444 75.7115 329.205L75.6745 329.015L75.526 328.859L75.0437 329.319H75.7104V329.265V329.201L75.6979 329.137C75.3995 327.62 75.2437 326.049 75.2437 324.453V124.08H486.271V123.413V122.747H73.9104V324.453C73.9104 326.136 74.0745 327.792 74.3896 329.395L75.0437 329.265H74.3771V329.319V329.587L74.5751 329.793L75.0573 329.333L74.4031 329.461C76.7303 341.317 87.1724 350.264 99.7104 350.265H461.124C475.385 350.265 486.937 338.701 486.937 324.453V122.747H486.271V123.413Z" fill="#17282F"/>
<path d="M473.267 189.509C466.413 189.509 460.868 183.961 460.868 177.109C460.868 170.268 466.413 164.708 473.267 164.708C480.12 164.708 485.667 170.268 485.667 177.109C485.667 183.961 480.12 189.509 473.267 189.509ZM485.88 154.508C484.12 153.523 482.24 152.749 480.293 152.203L478.04 142.109H468.44L466.201 152.203C464.24 152.735 462.36 153.523 460.6 154.508L451.933 148.961L445.148 155.749L450.6 164.416C449.6 166.189 448.827 168.068 448.293 170.015L438.201 172.256V181.856L448.293 184.109C448.827 186.083 449.6 187.976 450.6 189.749L445.053 198.469L451.84 205.256L460.56 199.708C462.32 200.708 464.201 201.481 466.16 202.029L468.4 212.109H478L480.253 202.029C482.201 201.481 484.08 200.696 485.84 199.708L486.28 199.988V154.256L485.88 154.508Z" fill="#17282F"/>
<path d="M239.184 180.259C224.744 180.259 213.037 168.552 213.037 154.112C213.037 139.672 224.744 127.965 239.184 127.965C253.624 127.965 265.331 139.672 265.331 154.112C265.331 168.552 253.624 180.259 239.184 180.259ZM312.917 164.232V143.992L291.637 139.272C290.476 135.165 288.851 131.192 286.771 127.459L289.344 123.405H188.904L191.384 127.352C189.291 131.072 187.664 135.032 186.531 139.152L165.251 143.885V164.125L186.531 168.872C187.664 173.019 189.291 177.019 191.384 180.765L179.691 199.152L194.011 213.459L212.384 201.765C216.117 203.859 220.077 205.499 224.197 206.659L228.917 227.912H249.157L253.917 206.659C258.024 205.499 261.971 203.845 265.691 201.765L284.077 213.459L298.384 199.152L286.771 180.765C288.837 177.032 290.476 173.085 291.637 168.979L312.917 164.232Z" fill="#17282F"/>
<path d="M136.031 278.133C128.351 269.599 115.204 268.907 106.671 276.587C98.137 284.265 97.4433 297.413 105.124 305.947C112.804 314.48 125.951 315.16 134.484 307.479C143.017 299.8 143.711 286.667 136.031 278.133ZM178.671 303.213L179.524 287.16L162.884 282.467C162.111 279.173 160.964 275.96 159.471 272.92L169.524 258.8L158.751 246.84L143.684 255.36C140.804 253.56 137.737 252.08 134.511 250.973L131.63 233.907L115.577 233.053L110.937 249.747C107.63 250.48 104.431 251.627 101.391 253.133L87.284 243.08L75.3105 253.853L83.8438 268.932C82.0042 271.8 80.537 274.867 79.4438 278.093L74.5771 278.893V300.64L78.1105 301.64C78.8574 304.96 80.0042 308.173 81.5236 311.213L74.5771 320.932L75.0438 329.265V329.319L75.0574 329.333L82.2173 337.28L97.311 328.76C100.19 330.613 103.284 332.107 106.51 333.2L109.257 349.587V349.599L109.391 350.28L125.443 351.133L125.871 349.599V349.587L130.083 334.44C133.417 333.693 136.617 332.56 139.684 331.053L153.764 341.092L165.737 330.333L157.231 315.24C159.044 312.373 160.511 309.307 161.577 306.092L178.671 303.213Z" fill="#17282F"/>
<path d="M279.408 286.337C271.055 288.611 262.447 283.68 260.18 275.343C257.907 266.988 262.839 258.38 271.176 256.115C279.531 253.84 288.139 258.772 290.404 267.109C292.677 275.464 287.747 284.072 279.408 286.337ZM307.055 279.224C307.679 276.74 308.001 274.187 308.029 271.621L319.571 265.553L316.381 253.844L303.355 254.453C302.036 252.256 300.46 250.221 298.673 248.405L302.533 235.943L292.015 229.917L283.213 239.52C280.736 238.913 278.195 238.595 275.635 238.555L269.541 227.004L257.849 230.185L258.467 243.231C256.271 244.548 254.233 246.124 252.407 247.905L239.939 244.057L233.905 254.561L243.56 263.337C242.936 265.823 242.617 268.365 242.607 270.921L231.044 277.009L234.233 288.719L247.277 288.101C248.579 290.307 250.143 292.337 251.941 294.157L248.061 306.556L258.581 312.583L267.337 303.061C269.823 303.685 272.364 304.004 274.932 304.02L281.008 315.577L292.701 312.396L292.189 301.255L292.101 299.344C294.321 298.035 296.371 296.464 298.221 294.661L310.679 298.535L315.827 289.537L316.704 288.015L307.055 279.224Z" fill="#17282F"/>
<path d="M395.797 299.099C386.344 305.859 373.197 303.685 366.437 294.232C359.664 284.792 361.851 271.645 371.291 264.885C380.744 258.112 393.891 260.299 400.649 269.739C407.424 279.192 405.237 292.339 395.797 299.099ZM440.877 299.819L443.544 283.752L427.277 277.204C426.904 273.779 426.117 270.419 424.944 267.179L436.649 254.139L427.171 240.885L411.024 247.739C408.344 245.592 405.424 243.779 402.304 242.325L401.357 224.805L385.277 222.152L378.691 238.352C375.277 238.752 371.929 239.539 368.703 240.699L355.624 228.992L342.384 238.472L349.251 254.605C347.357 256.979 345.717 259.512 344.357 262.204C344.171 262.579 343.983 262.952 343.811 263.325L326.304 264.299L323.637 280.352L326.277 281.419L339.904 286.912C340.277 290.312 341.051 293.672 342.237 296.899L330.531 309.979L340.011 323.219L356.157 316.339C358.824 318.512 361.757 320.339 364.864 321.792L365.771 339.232L381.837 341.885L388.411 325.805C391.837 325.432 395.197 324.645 398.424 323.459L411.477 335.179L424.731 325.685L417.864 309.537C420.051 306.859 421.904 303.912 423.369 300.779L440.877 299.819Z" fill="#17282F"/>
<path d="M223.02 387.519H96.6167C87.8645 387.519 80.7703 380.425 80.7703 371.673V196.659C80.7703 187.908 87.8645 180.812 96.6167 180.812H223.02C231.771 180.812 238.865 187.908 238.865 196.659V371.673C238.865 380.425 231.771 387.519 223.02 387.519Z" fill="#1024D6"/>
<path d="M223.02 387.519V386.852H96.6167C92.423 386.851 88.6318 385.153 85.8828 382.407C83.135 379.657 81.4375 375.867 81.437 371.673V196.659C81.4375 192.465 83.135 188.675 85.8828 185.925C88.6318 183.177 92.423 181.48 96.6167 181.479H223.02C227.213 181.48 231.004 183.177 233.753 185.925C236.501 188.675 238.199 192.465 238.199 196.659V371.673C238.199 375.867 236.501 379.657 233.753 382.407C231.004 385.153 227.213 386.851 223.02 386.852V387.519V388.186C232.139 388.184 239.532 380.793 239.532 371.673V196.659C239.532 187.54 232.14 180.147 223.02 180.147H96.6167C87.4964 180.147 80.1042 187.54 80.1036 196.659V371.673C80.1042 380.793 87.4964 388.184 96.6167 388.186H223.02V387.519Z" fill="#17282F"/>
<path d="M223.02 386.852H96.6167C92.423 386.851 88.6318 385.153 85.8829 382.407C83.135 379.657 81.4375 375.867 81.437 371.673V196.659C81.4375 192.465 83.135 188.675 85.8829 185.925C88.6318 183.177 92.423 181.48 96.6167 181.479H223.02C227.213 181.48 231.004 183.177 233.753 185.925C236.501 188.675 238.199 192.465 238.199 196.659V371.673C238.199 375.867 236.501 379.657 233.753 382.407C231.004 385.153 227.213 386.851 223.02 386.852Z" fill="#1024D6"/>
<path d="M223.02 387.519V386.852C227.213 386.851 231.004 385.153 233.753 382.407C236.501 379.657 238.199 375.867 238.199 371.673V196.659C238.199 192.465 236.501 188.675 233.753 185.925C231.004 183.177 227.213 181.48 223.02 181.479H96.6167C92.4229 181.48 88.6317 183.177 85.8828 185.925C83.1349 188.675 81.4375 192.465 81.4369 196.659V371.673C81.4375 375.867 83.1349 379.657 85.8828 382.407C88.6317 385.153 92.4229 386.851 96.6167 386.852H223.02V387.519H96.6167C87.8645 387.519 80.7703 380.425 80.7703 371.673V196.659C80.7703 187.908 87.8645 180.812 96.6167 180.812H223.02C231.771 180.812 238.865 187.908 238.865 196.659V371.673C238.865 380.425 231.771 387.519 223.02 387.519Z" fill="#111D23"/>
<path d="M253.583 212.271V387.284C253.583 396.044 246.489 403.139 237.729 403.139H111.33C102.583 403.139 95.4896 396.044 95.4896 387.284V212.271C95.4896 203.524 102.583 196.431 111.33 196.431H237.729C246.489 196.431 253.583 203.524 253.583 212.271Z" fill="white"/>
<path d="M253.583 212.271H252.916V387.284C252.916 391.483 251.219 395.275 248.469 398.025C245.72 400.773 241.928 402.471 237.729 402.472H111.33C107.138 402.471 103.35 400.773 100.601 398.025C97.8542 395.275 96.1569 391.483 96.1563 387.284V212.271C96.1569 208.08 97.8542 204.291 100.601 201.543C103.349 198.796 107.138 197.099 111.33 197.097H237.729C241.928 197.099 245.72 198.796 248.469 201.543C251.219 204.291 252.916 208.08 252.916 212.271H253.583H254.249C254.249 203.156 246.857 195.765 237.729 195.764H111.33C102.214 195.765 94.8235 203.156 94.823 212.271V387.284C94.8235 396.412 102.214 403.804 111.33 403.805H237.729C246.857 403.804 254.249 396.412 254.249 387.284V212.271H253.583Z" fill="#17282F"/>
<path d="M253.583 212.271V221.645H95.4896V212.271C95.4896 203.524 102.583 196.431 111.33 196.431H237.729C246.489 196.431 253.583 203.524 253.583 212.271Z" fill="#1024D6"/>
<path d="M253.583 212.271H252.916V220.979H96.1563V212.271C96.1569 208.08 97.8542 204.291 100.601 201.543C103.349 198.796 107.138 197.099 111.33 197.097H237.729C241.928 197.099 245.72 198.796 248.469 201.543C251.219 204.291 252.916 208.08 252.916 212.271H253.583H254.249C254.249 203.156 246.857 195.765 237.729 195.764H111.33C102.214 195.765 94.8235 203.156 94.823 212.271V222.312H254.249V212.271H253.583Z" fill="#17282F"/>
<path d="M149.251 239.025H110.357V232.501H149.251V239.025Z" fill="#1024D6"/>
<path d="M149.251 297.513H110.357V290.988H149.251V297.513Z" fill="#1024D6"/>
<path d="M149.251 350.551H110.357V344.028H149.251V350.551Z" fill="#1024D6"/>
<path d="M220.823 253.437H110.357V248.652H220.823V253.437Z" fill="#17282F"/>
<path d="M200.904 262.475H110.357V257.812H200.904V262.475Z" fill="#17282F"/>
<path d="M212.761 271.477H110.357V266.815H212.761V271.477Z" fill="#17282F"/>
<path d="M212.761 280.472H110.357V275.809H212.761V280.472Z" fill="#17282F"/>
<path d="M220.823 306.476H110.357V301.691H220.823V306.476Z" fill="#17282F"/>
<path d="M200.904 315.512H110.357V310.849H200.904V315.512Z" fill="#17282F"/>
<path d="M212.761 324.515H110.357V319.852H212.761V324.515Z" fill="#17282F"/>
<path d="M220.823 364.719H110.357V359.933H220.823V364.719Z" fill="#17282F"/>
<path d="M200.904 373.756H110.357V369.092H200.904V373.756Z" fill="#17282F"/>
<path d="M212.761 382.759H110.357V378.095H212.761V382.759Z" fill="#17282F"/>
<path d="M431.751 75.0801V145.813C431.751 156.253 423.297 164.707 412.857 164.707H249.937C239.511 164.707 231.044 156.253 231.044 145.813V75.0801C231.044 64.6401 239.511 56.1735 249.937 56.1735H412.857C423.297 56.1735 431.751 64.6401 431.751 75.0801Z" fill="white"/>
<path d="M431.751 75.0801H431.084V145.813C431.083 150.851 429.045 155.404 425.747 158.704C422.448 162.003 417.895 164.04 412.857 164.04H249.937C244.905 164.04 240.353 162.003 237.052 158.703C233.752 155.403 231.711 150.851 231.711 145.813V75.0801C231.711 70.0414 233.752 65.4854 237.052 62.1828C240.353 58.8814 244.907 56.8401 249.937 56.8401H412.857C417.895 56.8401 422.447 58.8814 425.747 62.1828C429.045 65.4854 431.083 70.0414 431.084 75.0801H431.751H432.417C432.416 64.2721 423.665 55.5067 412.857 55.5067H249.937C239.141 55.5067 230.377 64.2707 230.377 75.0801V145.813C230.377 156.621 239.143 165.373 249.937 165.373H412.857C423.665 165.373 432.417 156.621 432.417 145.813V75.0801H431.751Z" fill="#171717"/>
<path d="M431.751 75.08V76.6934H231.044V75.08C231.044 64.64 239.511 56.1734 249.937 56.1734H412.857C423.297 56.1734 431.751 64.64 431.751 75.08Z" fill="#1024D6"/>
<path d="M431.751 75.0801H431.084V76.0268H231.711V75.0801C231.711 70.0415 233.752 65.4855 237.052 62.1828C240.353 58.8815 244.907 56.8401 249.937 56.8401H412.857C417.895 56.8401 422.447 58.8815 425.747 62.1828C429.045 65.4855 431.083 70.0415 431.084 75.0801H431.751H432.417C432.416 64.2721 423.665 55.5068 412.857 55.5068H249.937C239.141 55.5068 230.377 64.2708 230.377 75.0801V76.6934V77.3601H432.417V75.0801H431.751Z" fill="#17282F"/>
<path d="M260.529 69.812C259.399 70.9427 257.567 70.9427 256.436 69.812C255.307 68.6827 255.307 66.8507 256.436 65.72C257.567 64.5907 259.399 64.5907 260.529 65.72C261.659 66.8507 261.659 68.6827 260.529 69.812Z" fill="#17282F"/>
<path d="M273.971 69.812C272.84 70.9427 271.008 70.9427 269.877 69.812C268.748 68.6827 268.748 66.8507 269.877 65.72C271.008 64.5907 272.84 64.5907 273.971 65.72C275.1 66.8507 275.1 68.6827 273.971 69.812Z" fill="#17282F"/>
<path d="M287.412 69.812C286.281 70.9427 284.448 70.9427 283.317 69.812C282.189 68.6827 282.189 66.8507 283.317 65.72C284.448 64.5907 286.281 64.5907 287.412 65.72C288.54 66.8507 288.54 68.6827 287.412 69.812Z" fill="#17282F"/>
<path d="M298.781 145.744H293.448C293.08 145.744 292.781 146.043 292.781 146.411C292.781 146.779 293.08 147.077 293.448 147.077H298.781C299.149 147.077 299.448 146.779 299.448 146.411C299.448 146.043 299.149 145.744 298.781 145.744ZM288.115 145.744H282.781C282.413 145.744 282.115 146.043 282.115 146.411C282.115 146.779 282.413 147.077 282.781 147.077H288.115C288.483 147.077 288.781 146.779 288.781 146.411C288.781 146.043 288.483 145.744 288.115 145.744ZM277.448 145.744H272.115C271.747 145.744 271.448 146.043 271.448 146.411C271.448 146.779 271.747 147.077 272.115 147.077H277.448C277.816 147.077 278.115 146.779 278.115 146.411C278.115 146.043 277.816 145.744 277.448 145.744ZM266.781 145.744H261.448C261.08 145.744 260.781 146.043 260.781 146.411C260.781 146.779 261.08 147.077 261.448 147.077H266.781C267.149 147.077 267.448 146.779 267.448 146.411C267.448 146.043 267.149 145.744 266.781 145.744ZM256.115 145.744H250.781C250.413 145.744 250.115 146.043 250.115 146.411C250.115 146.779 250.413 147.077 250.781 147.077H256.115C256.483 147.077 256.781 146.779 256.781 146.411C256.781 146.043 256.483 145.744 256.115 145.744ZM245.448 145.744H244.508V142.683C244.508 142.315 244.211 142.016 243.841 142.016C243.473 142.016 243.175 142.315 243.175 142.683V146.411C243.175 146.585 243.247 146.757 243.371 146.881C243.495 147.005 243.667 147.077 243.841 147.077H245.448C245.816 147.077 246.115 146.779 246.115 146.411C246.115 146.043 245.816 145.744 245.448 145.744ZM244.508 137.349V132.016C244.508 131.648 244.211 131.349 243.841 131.349C243.473 131.349 243.175 131.648 243.175 132.016V137.349C243.175 137.719 243.473 138.016 243.841 138.016C244.211 138.016 244.508 137.719 244.508 137.349ZM244.508 126.683V121.349C244.508 120.981 244.211 120.683 243.841 120.683C243.473 120.683 243.175 120.981 243.175 121.349V126.683C243.175 127.052 243.473 127.349 243.841 127.349C244.211 127.349 244.508 127.052 244.508 126.683ZM244.508 116.016V110.683C244.508 110.315 244.211 110.016 243.841 110.016C243.473 110.016 243.175 110.315 243.175 110.683V116.016C243.175 116.385 243.473 116.683 243.841 116.683C244.211 116.683 244.508 116.385 244.508 116.016ZM244.508 105.349V100.016C244.508 99.6481 244.211 99.3494 243.841 99.3494C243.473 99.3494 243.175 99.6481 243.175 100.016V105.349C243.175 105.719 243.473 106.016 243.841 106.016C244.211 106.016 244.508 105.719 244.508 105.349ZM244.508 94.6827V89.7001H243.841V90.3667H244.192C244.56 90.3667 244.859 90.0681 244.859 89.7001C244.859 89.3321 244.56 89.0334 244.192 89.0334H243.841C243.667 89.0334 243.495 89.1054 243.371 89.228C243.247 89.352 243.175 89.5241 243.175 89.7001V94.6827C243.175 95.0521 243.473 95.3494 243.841 95.3494C244.211 95.3494 244.508 95.0521 244.508 94.6827ZM249.525 90.3667H254.859C255.227 90.3667 255.525 90.0681 255.525 89.7001C255.525 89.3321 255.227 89.0334 254.859 89.0334H249.525C249.157 89.0334 248.859 89.3321 248.859 89.7001C248.859 90.0681 249.157 90.3667 249.525 90.3667ZM260.192 90.3667H265.525C265.893 90.3667 266.192 90.0681 266.192 89.7001C266.192 89.3321 265.893 89.0334 265.525 89.0334H260.192C259.824 89.0334 259.525 89.3321 259.525 89.7001C259.525 90.0681 259.824 90.3667 260.192 90.3667ZM270.859 90.3667H276.192C276.56 90.3667 276.859 90.0681 276.859 89.7001C276.859 89.3321 276.56 89.0334 276.192 89.0334H270.859C270.491 89.0334 270.192 89.3321 270.192 89.7001C270.192 90.0681 270.491 90.3667 270.859 90.3667ZM281.525 90.3667H286.859C287.227 90.3667 287.525 90.0681 287.525 89.7001C287.525 89.3321 287.227 89.0334 286.859 89.0334H281.525C281.157 89.0334 280.859 89.3321 280.859 89.7001C280.859 90.0681 281.157 90.3667 281.525 90.3667ZM292.192 90.3667H297.525C297.893 90.3667 298.192 90.0681 298.192 89.7001C298.192 89.3321 297.893 89.0334 297.525 89.0334H292.192C291.824 89.0334 291.525 89.3321 291.525 89.7001C291.525 90.0681 291.824 90.3667 292.192 90.3667ZM302.859 90.3667H308.192C308.56 90.3667 308.859 90.0681 308.859 89.7001C308.859 89.3321 308.56 89.0334 308.192 89.0334H302.859C302.491 89.0334 302.192 89.3321 302.192 89.7001C302.192 90.0681 302.491 90.3667 302.859 90.3667ZM308.781 93.7774V99.1107C308.781 99.4787 309.08 99.7774 309.448 99.7774C309.816 99.7774 310.115 99.4787 310.115 99.1107V93.7774C310.115 93.4094 309.816 93.1107 309.448 93.1107C309.08 93.1107 308.781 93.4094 308.781 93.7774ZM308.781 104.444V109.777C308.781 110.145 309.08 110.444 309.448 110.444C309.816 110.444 310.115 110.145 310.115 109.777V104.444C310.115 104.076 309.816 103.777 309.448 103.777C309.08 103.777 308.781 104.076 308.781 104.444ZM308.781 115.111V120.444C308.781 120.812 309.08 121.111 309.448 121.111C309.816 121.111 310.115 120.812 310.115 120.444V115.111C310.115 114.743 309.816 114.444 309.448 114.444C309.08 114.444 308.781 114.743 308.781 115.111ZM308.781 125.777V131.111C308.781 131.479 309.08 131.777 309.448 131.777C309.816 131.777 310.115 131.479 310.115 131.111V125.777C310.115 125.409 309.816 125.111 309.448 125.111C309.08 125.111 308.781 125.409 308.781 125.777ZM308.781 136.444V141.777C308.781 142.145 309.08 142.444 309.448 142.444C309.816 142.444 310.115 142.145 310.115 141.777V136.444C310.115 136.076 309.816 135.777 309.448 135.777C309.08 135.777 308.781 136.076 308.781 136.444ZM309.448 145.744H304.115C303.747 145.744 303.448 146.043 303.448 146.411C303.448 146.779 303.747 147.077 304.115 147.077H309.448C309.816 147.077 310.115 146.779 310.115 146.411C310.115 146.043 309.816 145.744 309.448 145.744Z" fill="#17282F"/>
<path d="M395.076 93.6827H319.571V89.7001H395.076V93.6827Z" fill="#17282F"/>
<path d="M377.487 101.941H319.571V97.9601H377.487V101.941Z" fill="#17282F"/>
<path d="M405.815 110.2H319.571V106.172H405.815V110.2Z" fill="#17282F"/>
<path d="M393.009 118.224H319.571V114.195H393.009V118.224Z" fill="#17282F"/>
<path d="M336.381 486.248C336.381 486.248 301.328 496.302 296.435 498.035C291.98 499.607 279.915 503.833 270.861 502.528C269.968 502.395 269.101 502.207 268.275 501.968C259.101 499.235 254.981 496.688 253.781 490.914C252.568 485.128 257.141 480.902 261.541 478.181C265.941 475.461 289.808 472.621 289.808 472.621L295.568 474.315H295.581L336.381 486.248Z" fill="#1024D6"/>
<path d="M270.861 502.528C269.968 502.395 269.101 502.207 268.275 501.968C259.101 499.235 254.981 496.688 253.781 490.915C252.568 485.128 257.141 480.902 261.541 478.181C265.941 475.462 289.808 472.621 289.808 472.621L295.568 474.315C290.355 476.714 270.915 478.047 266.675 480.486C262.435 482.927 260.381 487.528 262.888 493.741C264.221 497.047 267.795 500.248 270.861 502.528Z" fill="white"/>
<path d="M330.94 487.032C330.936 487.033 324.351 488.739 316.456 490.992C308.559 493.247 299.367 496.041 294.087 498.248C289.131 500.324 281.904 501.853 275.031 501.851C271.375 501.852 267.819 501.42 264.757 500.432C261.693 499.444 259.139 497.909 257.417 495.723C255.287 493.016 254.445 490.492 254.444 488.253C254.445 485.769 255.483 483.586 257.123 481.856C258.761 480.128 261.004 478.875 263.327 478.314C269.256 476.872 280.345 474.72 288.272 474.724C289.767 474.724 291.147 474.8 292.349 474.968C292.715 475.019 293.051 474.764 293.101 474.4C293.153 474.035 292.899 473.698 292.533 473.647C291.248 473.468 289.812 473.391 288.272 473.391C280.125 473.393 269.019 475.563 263.012 477.017C260.444 477.641 257.991 479.007 256.156 480.939C254.323 482.867 253.109 485.385 253.111 488.253C253.109 490.836 254.095 493.663 256.371 496.548C258.305 499.003 261.112 500.659 264.348 501.702C267.587 502.744 271.271 503.184 275.031 503.184C282.101 503.181 289.441 501.633 294.601 499.479C299.759 497.32 308.949 494.52 316.823 492.275C320.761 491.151 324.375 490.161 327.004 489.455C329.632 488.748 331.269 488.324 331.275 488.323C331.631 488.231 331.844 487.867 331.752 487.511C331.66 487.153 331.296 486.94 330.94 487.032Z" fill="#17282F"/>
<path d="M271.709 501.464L271.612 501.408C271.101 501.116 268.709 499.679 266.476 497.421C264.235 495.161 262.197 492.111 262.204 488.616C262.205 487.373 262.456 486.063 263.055 484.675C263.777 482.997 265.337 481.769 267.535 480.823C270.819 479.405 275.42 478.7 280.029 477.984C284.645 477.26 289.268 476.528 292.725 474.91C293.059 474.755 293.201 474.357 293.045 474.024C292.888 473.691 292.492 473.548 292.159 473.704C287.915 475.707 281.255 476.355 275.24 477.41C272.228 477.944 269.369 478.583 267.007 479.598C264.653 480.609 262.749 482.025 261.831 484.145C261.163 485.691 260.871 487.192 260.871 488.616C260.88 492.92 263.483 496.412 266.003 498.825C268.535 501.244 271.039 502.615 271.069 502.633C271.392 502.809 271.797 502.692 271.975 502.369C272.151 502.047 272.033 501.641 271.709 501.464Z" fill="#17282F"/>
<path d="M443.141 504.153C442.781 507.741 441.515 511.181 437.888 513.315C435.475 514.741 432.035 515.593 427.115 515.54C414.821 515.38 391.715 506.593 391.715 506.593L370.075 494.635L381.328 476.82L384.408 471.94L392.368 473.728C392.368 473.728 398.955 477.461 405.581 480.433C412.207 483.408 428.288 484.035 433.955 488.621C439.621 493.195 443.755 498.181 443.141 504.153Z" fill="#1024D6"/>
<path d="M443.141 504.153C442.781 507.741 441.515 511.181 437.888 513.315C438.568 510.528 439.128 506.675 437.275 502.515C434.873 497.088 426.995 492.302 416.647 491.5C406.313 490.702 398.381 485.861 394.235 483.702C390.995 482.021 384.168 478.355 381.328 476.82L384.408 471.94L392.368 473.728C392.368 473.728 398.955 477.461 405.581 480.433C412.207 483.408 428.288 484.035 433.955 488.621C439.621 493.195 443.755 498.181 443.141 504.153Z" fill="white"/>
<path d="M374.539 498.565C390.015 507.431 407.709 513.816 425.44 515.95C426.627 516.093 427.879 516.202 429.133 516.202C430.615 516.202 432.101 516.052 433.485 515.619C434.868 515.185 436.152 514.457 437.171 513.314C438.589 511.72 439.193 509.602 439.195 507.536C439.195 507.233 439.181 506.931 439.155 506.631C438.901 503.68 437.535 501.056 435.592 498.903C433.648 496.748 431.124 495.049 428.484 493.914C423.229 491.661 417.528 491.14 412.147 489.928C406.785 488.727 401.581 486.823 396.711 484.281C392.837 482.267 389.005 479.741 384.528 478.786C383.539 478.577 382.512 478.471 381.483 478.471C379.64 478.471 377.788 478.814 376.137 479.556C374.489 480.297 373.04 481.449 372.061 483.049C371.869 483.364 371.968 483.773 372.283 483.967C372.596 484.159 373.007 484.06 373.199 483.745C374.02 482.404 375.237 481.425 376.685 480.772C378.132 480.12 379.805 479.803 381.483 479.804C382.419 479.803 383.355 479.902 384.252 480.091C388.403 480.965 392.145 483.397 396.095 485.464C401.068 488.059 406.38 490.003 411.855 491.229C417.352 492.457 422.965 492.988 427.957 495.139C430.439 496.204 432.812 497.809 434.603 499.796C436.395 501.785 437.603 504.141 437.827 506.745C437.849 507.007 437.861 507.272 437.861 507.536C437.861 509.347 437.323 511.145 436.176 512.427C435.34 513.362 434.292 513.967 433.087 514.347C431.883 514.725 430.525 514.869 429.133 514.868C427.955 514.868 426.753 514.767 425.6 514.628C408.077 512.519 390.536 506.195 375.201 497.409C374.881 497.225 374.475 497.336 374.292 497.656C374.108 497.975 374.219 498.383 374.539 498.565Z" fill="#17282F"/>
<path d="M435.533 514.971C439.672 512.845 443.093 508.949 443.804 504.252C443.893 503.653 443.937 503.053 443.937 502.456C443.928 497.529 441.031 492.883 437.151 489.904C432.811 486.58 427.46 485.056 422.245 483.968C417.031 482.888 411.767 482.161 406.935 480.272C403.755 479.032 400.544 477.247 397.273 475.755C394.004 474.267 390.66 473.061 387.185 473.06C385.999 473.06 384.799 473.202 383.591 473.523C383.235 473.617 383.023 473.983 383.117 474.337C383.212 474.693 383.577 474.905 383.933 474.811C385.024 474.521 386.105 474.393 387.185 474.393C390.343 474.391 393.515 475.505 396.721 476.968C399.927 478.428 403.153 480.225 406.449 481.515C411.481 483.476 416.821 484.202 421.973 485.275C427.127 486.344 432.275 487.841 436.34 490.961C439.956 493.728 442.613 498.075 442.604 502.456C442.604 502.988 442.565 503.523 442.485 504.055C441.871 508.212 438.753 511.824 434.925 513.784C434.597 513.952 434.468 514.355 434.636 514.683C434.804 515.009 435.205 515.139 435.533 514.971Z" fill="#17282F"/>
<path d="M392.421 396.553C391.155 397.207 396.061 383.607 393.728 380.528C391.395 377.433 384.408 377.741 384.408 377.741L385.008 374.021C385.088 373.607 389.155 352.755 389.155 352.755L390.528 351.115C390.528 351.115 404.768 375.528 407.313 384.128C407.313 384.128 391.795 396.553 392.421 396.553ZM300.368 378.581C297.675 380.487 299.115 387.886 299.115 387.886L294.528 383.848L306.033 355.553L310.941 377.273C310.941 377.273 303.061 376.688 300.368 378.581ZM399.288 310.741L362.675 296.808L362.221 296.635C362.221 296.635 362.355 295.66 362.461 294.248C362.688 291.327 362.808 286.568 361.435 284.955C359.395 282.568 353.608 284.568 347.968 281.98C342.328 279.395 331.888 284.021 331.888 284.021C331.888 284.021 324.355 282.635 321.035 288.075C319.341 292.461 319.927 298.993 319.927 298.993C319.927 298.993 319.688 299.088 319.235 299.248C314.873 300.873 291.141 309.808 286.115 313.395C280.568 317.327 274.435 357.66 272.461 369.5C270.488 381.355 266.981 392.021 268.768 396.1C270.541 400.167 296.048 419.808 310.715 424.874C325.381 429.955 377.421 428.462 377.421 428.462C377.421 428.462 378.275 428.235 379.781 427.755C388.581 424.927 419.808 413.288 436.368 385.833C436.368 385.833 420.328 333.22 399.288 310.741Z" fill="#1024D6"/>
<path d="M330.159 222.493L311.261 242.557C311.261 242.557 308.656 244.86 309.692 250.68C310.728 256.5 313.14 261.5 314.961 261.887C316.783 262.275 319.337 262.279 319.337 262.279C319.337 262.279 323.387 271.055 326.255 274.504C326.255 274.504 327.255 288.049 326.721 291.811C326.721 291.811 333.511 297.741 339.905 298.495C346.3 299.249 356.18 289.451 356.18 289.451L358.629 277.457C358.629 277.457 364.425 268.657 364.821 266.315C365.216 263.972 367.867 264.573 369.169 263.417C370.472 262.261 373.485 257.093 373.983 252.209C374.481 247.327 374.516 241.717 368.843 243.364C363.927 242.044 367.004 231.652 367.004 231.652L358.367 224.031L330.159 222.493Z" fill="white"/>
<path d="M362.387 295.129C362.412 294.861 362.437 294.565 362.461 294.248C362.688 291.327 362.808 286.568 361.435 284.955C362.961 286.741 362.643 292.397 362.387 295.129Z" fill="#849193"/>
<path d="M344.995 316.075L340.888 303.448L338.635 316.075C334.101 314.1 320.275 302.115 320.275 302.115C320.275 302.115 319.808 300.993 319.235 299.248C319.688 299.088 319.927 298.993 319.927 298.993C319.927 298.993 319.829 297.9 319.829 296.307C319.829 294.007 320.033 290.667 321.035 288.075C321.045 288.056 321.056 288.039 321.068 288.02C321.071 288.016 321.073 288.011 321.076 288.007C321.083 287.995 321.091 287.983 321.099 287.971C322.544 285.677 324.749 284.627 326.789 284.175C326.903 287.288 326.933 290.319 326.721 291.811C326.721 291.811 333.511 297.741 339.905 298.495C340.141 298.523 340.384 298.536 340.629 298.536C347.019 298.536 356.18 289.451 356.18 289.451L357.371 283.617C359.168 283.741 360.608 283.988 361.435 284.955C362.808 286.568 362.688 291.327 362.461 294.248L361.701 298.993L358.561 303.263C353.46 309.095 344.995 316.075 344.995 316.075Z" fill="#1225D3"/>
<path d="M340.629 298.536C340.384 298.536 340.141 298.523 339.905 298.495C333.511 297.741 326.721 291.811 326.721 291.811C326.933 290.319 326.903 287.288 326.789 284.175C327.873 283.935 328.911 283.863 329.763 283.863C331.029 283.863 331.888 284.021 331.888 284.021C331.888 284.021 338.265 281.195 343.744 281.195C345.275 281.195 346.736 281.416 347.968 281.98C351.324 283.52 354.732 283.436 357.371 283.617L356.18 289.451C356.18 289.451 347.019 298.536 340.629 298.536Z" fill="white"/>
<path d="M379.781 427.755L371.435 419.088L374.195 386.315L380.944 328.6C381.652 322.539 378.563 316.681 373.183 313.801C365.443 309.657 356.288 306.355 356.288 306.355L358.561 303.263C359.923 301.707 361.044 300.232 361.701 298.993C362.061 298.313 362.381 297.581 362.675 296.808L399.288 310.741C420.328 333.22 436.368 385.833 436.368 385.833C419.808 413.288 388.581 424.927 379.781 427.755ZM392.208 396.232C392.208 396.455 392.249 396.576 392.341 396.576C392.365 396.576 392.391 396.569 392.421 396.553C392.408 396.553 392.403 396.549 392.403 396.54C392.395 396.073 407.313 384.128 407.313 384.128C404.768 375.528 390.528 351.115 390.528 351.115L389.155 352.755C389.155 352.755 388.617 355.513 387.928 359.045C387.843 359.48 387.756 359.925 387.668 360.379C386.497 366.38 385.055 373.776 385.008 374.021L384.408 377.741C384.408 377.741 384.6 377.732 384.931 377.732C386.596 377.732 391.781 377.947 393.728 380.528C394.189 381.136 394.367 382.153 394.367 383.391C394.365 387.683 392.209 394.615 392.208 396.232Z" fill="#1024D6"/>
<path d="M362.221 296.635C362.223 296.628 362.301 296.041 362.387 295.129C362.301 296.044 362.223 296.628 362.221 296.635Z" fill="#50C183"/>
<path d="M358.561 303.263L361.701 298.993C361.044 300.232 359.923 301.707 358.561 303.263Z" fill="#86C7A0"/>
<path d="M361.701 298.993L362.461 294.248C362.437 294.565 362.412 294.861 362.387 295.129C362.301 296.041 362.223 296.628 362.221 296.635L362.675 296.808C362.381 297.581 362.061 298.313 361.701 298.993Z" fill="#86C7A0"/>
<path d="M303.995 404.486C303.995 404.486 287.568 391.38 280.795 391.38C274.035 391.38 275.235 389.207 280.795 380.528C286.355 371.833 292.361 342.584 292.361 342.584L290.52 318.099C295.736 324.497 302.735 345.463 305.963 355.731L304.613 359.045L304.072 360.379L294.528 383.848L299.115 387.886C299.115 387.886 298.731 385.912 298.731 383.74C298.729 381.708 299.065 379.503 300.368 378.581C302.032 377.412 305.673 377.188 308.216 377.188C309.789 377.188 310.941 377.273 310.941 377.273L306.365 357.021C307.225 359.784 307.728 361.5 307.728 361.5L313.421 380.528L302.728 393.553L303.995 404.486Z" fill="#1024D6"/>
<path d="M306.365 357.021C306.239 356.613 306.104 356.181 305.963 355.731L306.033 355.553L306.365 357.021Z" fill="#C3C5C2"/>
<path d="M325.591 274.572C325.591 274.573 325.62 274.851 325.663 275.344C325.793 276.823 326.055 280.205 326.055 283.492C326.056 285.68 325.935 287.836 325.604 289.305C325.523 289.664 325.749 290.021 326.108 290.101C326.468 290.181 326.824 289.956 326.904 289.596C327.273 287.94 327.387 285.732 327.388 283.492C327.387 279.019 326.919 274.448 326.917 274.436C326.88 274.069 326.552 273.804 326.187 273.841C325.82 273.879 325.553 274.205 325.591 274.572Z" fill="#17282F"/>
<path d="M357.892 288.068V287.956C357.891 287.201 357.944 282.707 359.015 278.437C359.104 278.08 358.887 277.717 358.529 277.628C358.172 277.539 357.809 277.756 357.72 278.113C356.605 282.579 356.56 287.141 356.559 287.956V288.084C356.564 288.452 356.865 288.747 357.233 288.743C357.601 288.737 357.896 288.436 357.892 288.068Z" fill="#17282F"/>
<path d="M359.452 230.557C359.453 230.559 359.537 230.665 359.695 230.873C360.247 231.604 361.64 233.535 362.885 235.889C364.133 238.241 365.215 241.029 365.208 243.384C365.208 243.523 365.204 243.659 365.196 243.795C364.923 248.875 364.528 254.804 364.527 260.76C364.527 261.7 364.537 262.641 364.559 263.581L364.56 263.712C364.565 265.263 363.916 267.377 362.816 269.639C361.171 273.035 358.539 276.781 355.811 279.767C354.447 281.26 353.057 282.563 351.767 283.54C350.479 284.517 349.28 285.159 348.369 285.356C346.067 285.868 343.916 286.217 341.963 286.216C339.096 286.209 336.7 285.496 334.661 283.467C331.061 279.869 327.407 274.793 322.632 268.265C321.104 266.185 320.168 263.137 319.644 260.032C319.116 256.927 318.987 253.768 318.988 251.448C318.988 250.365 319.016 249.465 319.043 248.837C319.071 248.209 319.099 247.861 319.099 247.86C319.127 247.493 318.852 247.173 318.485 247.144C318.119 247.116 317.797 247.389 317.769 247.757C317.768 247.771 317.655 249.237 317.655 251.448C317.655 253.817 317.784 257.04 318.329 260.255C318.879 263.471 319.829 266.684 321.556 269.053C326.331 275.575 329.999 280.687 333.719 284.409C336.029 286.729 338.881 287.557 341.963 287.549C344.073 287.549 346.311 287.179 348.659 286.657C350.285 286.287 352.083 285.107 353.965 283.461C356.779 280.988 359.731 277.435 362.004 273.82C364.269 270.196 365.879 266.555 365.893 263.712L365.892 263.549C365.871 262.623 365.86 261.691 365.86 260.76C365.86 254.861 366.253 248.957 366.528 243.867C366.536 243.707 366.541 243.545 366.541 243.384C366.531 240.248 365 236.88 363.503 234.247C362.001 231.619 360.509 229.745 360.496 229.728C360.267 229.44 359.847 229.392 359.559 229.621C359.271 229.851 359.223 230.269 359.452 230.557Z" fill="#17282F"/>
<path d="M344.376 253.151C344.041 255.044 343.872 256.968 343.872 258.891C343.871 259.184 343.875 259.479 343.883 259.772C343.939 261.633 344.187 263.776 345.665 265.303C346.059 265.701 346.481 266.017 346.787 266.323C347.097 266.632 347.259 266.887 347.293 267.155V267.156L347.301 267.265C347.301 267.477 347.216 267.715 347.037 267.96C346.861 268.204 346.599 268.44 346.32 268.617H346.321C345.684 269.036 344.799 269.328 344.004 270.005C343.727 270.247 343.697 270.668 343.939 270.945C344.18 271.223 344.601 271.253 344.879 271.011C345.397 270.548 346.209 270.259 347.039 269.74H347.04C347.436 269.484 347.817 269.155 348.116 268.745C348.413 268.337 348.633 267.835 348.635 267.265L348.615 266.977L348.616 266.979C348.52 266.276 348.119 265.765 347.725 265.376C347.328 264.984 346.908 264.669 346.616 264.369C345.548 263.3 345.256 261.513 345.216 259.736C345.208 259.455 345.204 259.172 345.204 258.891C345.204 257.047 345.367 255.2 345.689 253.384C345.753 253.021 345.512 252.675 345.149 252.611C344.787 252.547 344.44 252.788 344.376 253.151Z" fill="#17282F"/>
<path d="M334.517 271.367C334.529 271.435 334.731 272.695 335.776 274.097C336.817 275.501 338.735 277.015 341.995 277.517C342.359 277.573 342.7 277.325 342.756 276.961C342.813 276.597 342.564 276.256 342.2 276.2C339.256 275.735 337.712 274.451 336.844 273.3C336.412 272.723 336.157 272.172 336.011 271.773C335.939 271.575 335.892 271.412 335.867 271.305L335.84 271.187L335.835 271.163C335.779 270.799 335.437 270.549 335.073 270.605C334.709 270.663 334.461 271.003 334.517 271.367Z" fill="#17282F"/>
<path d="M335.821 256.795C335.821 258.132 335.244 259.215 334.531 259.215C333.817 259.215 333.24 258.132 333.24 256.795C333.24 255.457 333.817 254.373 334.531 254.373C335.244 254.373 335.821 255.457 335.821 256.795Z" fill="#17282F"/>
<path d="M354.325 257.376C354.325 258.713 353.748 259.797 353.035 259.797C352.321 259.797 351.744 258.713 351.744 257.376C351.744 256.039 352.321 254.956 353.035 254.956C353.748 254.956 354.325 256.039 354.325 257.376Z" fill="#17282F"/>
<path d="M351.536 252.459L351.305 252.228L351.533 252.461L351.536 252.459L351.305 252.228L351.533 252.461C351.556 252.437 352.131 251.883 353.004 251.361C353.877 250.835 355.031 250.364 356.195 250.369C356.869 250.371 357.557 250.512 358.293 250.9C359.028 251.289 359.821 251.94 360.639 253.016C361.084 253.603 361.92 253.717 362.507 253.272C363.093 252.827 363.208 251.991 362.763 251.404C361.757 250.076 360.668 249.14 359.541 248.544C358.416 247.945 357.261 247.701 356.195 247.703C354.275 247.708 352.664 248.445 351.525 249.14C350.385 249.84 349.7 250.524 349.649 250.573C349.129 251.093 349.129 251.937 349.649 252.459C350.171 252.98 351.015 252.98 351.536 252.459Z" fill="#17282F"/>
<path d="M338.86 250.744C338.796 250.673 338.284 250.109 337.341 249.539C336.401 248.969 335.007 248.395 333.255 248.395C331.503 248.391 329.444 248.983 327.257 250.544C326.657 250.972 326.517 251.804 326.944 252.404C327.371 253.004 328.203 253.144 328.803 252.717C330.628 251.425 332.092 251.065 333.255 251.061C334.416 251.063 335.327 251.439 335.964 251.821C336.28 252.012 336.523 252.203 336.677 252.339L336.844 252.493L336.875 252.524L336.877 252.527L337.46 251.992L336.869 252.519L336.877 252.527L337.46 251.992L336.869 252.519C337.36 253.068 338.203 253.116 338.752 252.627C339.301 252.136 339.349 251.293 338.86 250.744Z" fill="#17282F"/>
<path d="M326.721 280.143C326.721 280.143 330.407 290.3 338.637 293.181C346.868 296.061 357.796 281.111 357.796 281.111L357.224 279.165C357.224 279.165 350.064 288.471 342.097 286.883C334.132 285.297 326.255 274.504 326.255 274.504L326.721 280.143Z" fill="#17282F"/>
<path d="M319.116 261.259L319.08 261.269C318.891 261.333 317.949 261.615 316.924 261.612C316.276 261.613 315.607 261.501 315.059 261.204C314.512 260.901 314.056 260.44 313.757 259.581C313.284 258.197 312.432 256.08 311.699 253.765C310.963 251.455 310.356 248.948 310.359 246.891C310.357 246.041 310.46 245.273 310.68 244.629C310.9 243.984 311.227 243.465 311.696 243.063C312.303 242.548 312.803 242.387 313.259 242.384C313.785 242.383 314.328 242.624 314.868 243.059C315.676 243.707 316.409 244.761 316.913 245.649C317.167 246.092 317.367 246.493 317.501 246.781C317.568 246.925 317.62 247.041 317.653 247.12L317.703 247.235C317.84 247.576 318.229 247.741 318.571 247.604C318.912 247.465 319.076 247.077 318.939 246.736C318.927 246.711 318.384 245.361 317.44 243.976C316.967 243.283 316.392 242.577 315.705 242.021C315.021 241.469 314.199 241.052 313.259 241.051C312.449 241.048 311.609 241.376 310.828 242.051C310.153 242.628 309.696 243.375 309.417 244.201C309.136 245.028 309.025 245.937 309.025 246.891C309.028 249.199 309.676 251.793 310.427 254.168C311.179 256.537 312.045 258.689 312.496 260.012C312.88 261.159 313.604 261.939 314.425 262.376C315.245 262.817 316.132 262.944 316.924 262.945C318.359 262.943 319.519 262.528 319.56 262.516C319.907 262.393 320.088 262.012 319.967 261.665C319.844 261.317 319.463 261.136 319.116 261.259Z" fill="#17282F"/>
<path d="M365.085 264.625C365.116 264.631 365.635 264.735 366.389 264.735C367.175 264.733 368.221 264.625 369.237 264.136C370.252 263.652 371.221 262.74 371.712 261.281C372.163 259.96 373.028 257.807 373.78 255.437C374.531 253.063 375.18 250.468 375.183 248.159C375.183 247.205 375.071 246.297 374.791 245.469C374.511 244.644 374.053 243.896 373.38 243.32C372.599 242.645 371.759 242.317 370.949 242.32C370.009 242.321 369.185 242.739 368.501 243.291C367.473 244.125 366.691 245.292 366.136 246.257C365.585 247.221 365.276 247.985 365.269 248.004C365.131 248.345 365.296 248.735 365.637 248.872C365.979 249.011 366.367 248.845 366.505 248.504L366.525 248.455C366.636 248.192 367.196 246.923 368.032 245.763C368.448 245.183 368.935 244.633 369.44 244.249C369.949 243.863 370.455 243.652 370.949 243.653C371.405 243.656 371.905 243.817 372.512 244.332C372.98 244.735 373.308 245.253 373.528 245.899C373.747 246.543 373.849 247.311 373.849 248.159C373.852 250.217 373.244 252.723 372.509 255.035C371.775 257.349 370.923 259.468 370.449 260.851C370.06 261.975 369.405 262.565 368.656 262.936C367.907 263.301 367.048 263.403 366.389 263.401C366.073 263.401 365.805 263.38 365.62 263.357L365.409 263.328L365.357 263.32L365.348 263.317C364.987 263.245 364.636 263.479 364.563 263.84C364.491 264.201 364.724 264.552 365.085 264.625Z" fill="#17282F"/>
<path d="M318.32 256.795C319.68 256.733 321.911 255.408 322.627 254.251C323.341 253.093 323.645 251.733 323.877 250.393C324.321 247.825 324.551 245.221 324.559 242.616C324.563 241.597 324.536 240.559 324.833 239.585C325.143 238.571 325.785 237.693 326.473 236.888C328.185 234.881 330.248 233.185 331.875 231.109C333.503 229.033 334.7 226.407 334.259 223.805C334.259 223.805 345.385 233.976 361.424 230.831C370.059 229.137 378.345 221.56 377.337 212.036C376.979 208.647 374.487 206.211 371.253 205.405C366.984 204.344 363.149 206.619 359.283 208.079C352.233 210.736 345.335 206.172 338.212 205.405C332.12 204.751 324.644 205.505 321.472 211.563C321.472 211.563 310.531 212.847 305.737 221.835C300.944 230.82 310.055 243.261 310.055 243.261C310.055 243.261 313.721 238.823 318.433 247.809L318.32 256.795Z" fill="#17282F"/>
<path d="M360.663 227.844C360.663 227.844 357.833 242.589 365.216 249.729C365.216 249.729 366.832 245.296 368.471 244.215C368.471 244.215 372.58 236.425 367.177 227.844C361.775 219.264 360.663 227.844 360.663 227.844Z" fill="#17282F"/>
<path d="M317.077 234.589C317.063 234.589 317.047 234.589 317.032 234.588C316.664 234.563 316.387 234.245 316.412 233.877C316.709 229.551 319.06 225.541 322.353 222.605C325.651 219.671 329.911 217.784 334.144 217.78C334.548 217.78 334.952 217.797 335.355 217.833C342.615 218.484 349.601 220.912 356.505 220.912C356.517 220.912 356.531 220.912 356.543 220.912C359.535 220.911 362.508 220.465 365.512 219.243C369.259 217.719 372.529 214.693 373.544 210.892C373.624 210.595 373.893 210.399 374.188 210.399C374.244 210.399 374.303 210.405 374.361 210.421C374.716 210.517 374.927 210.883 374.832 211.239C373.66 215.564 370.06 218.825 366.015 220.477C362.831 221.775 359.671 222.245 356.548 222.245C356.547 222.245 356.544 222.245 356.543 222.245C349.32 222.236 342.291 219.776 335.237 219.161C334.875 219.129 334.511 219.113 334.144 219.113C334.14 219.113 334.136 219.113 334.132 219.113C330.307 219.113 326.319 220.856 323.24 223.601C320.155 226.348 318.003 230.077 317.743 233.968C317.719 234.32 317.425 234.589 317.077 234.589Z" fill="#405158"/>
<path d="M310.712 232.319C310.707 232.319 310.701 232.319 310.696 232.319C310.328 232.309 310.036 232.005 310.044 231.636C310.215 224.576 314.835 217.883 321.379 215.223C321.461 215.189 321.545 215.173 321.629 215.173C321.892 215.173 322.141 215.331 322.247 215.589C322.385 215.931 322.221 216.32 321.88 216.457C315.853 218.889 311.517 225.171 311.377 231.667C311.369 232.031 311.072 232.319 310.712 232.319Z" fill="#405158"/>
<path d="M323.397 288.524C323.436 288.557 330.221 296.061 339.616 299.62C339.752 299.671 339.897 299.677 340.037 299.636C340.064 299.628 343.167 298.728 347.071 296.741C350.972 294.753 355.684 291.684 358.905 287.276C359.123 286.979 359.057 286.561 358.76 286.344C358.463 286.128 358.045 286.192 357.829 286.489C354.807 290.636 350.26 293.624 346.465 295.553C344.568 296.519 342.861 297.223 341.633 297.683C341.019 297.912 340.523 298.081 340.184 298.193C340.013 298.249 339.883 298.291 339.795 298.317L339.667 298.356L339.852 298.996L340.088 298.372C335.58 296.671 331.64 293.979 328.837 291.713C327.436 290.58 326.319 289.555 325.553 288.813C325.171 288.444 324.876 288.145 324.679 287.94L324.456 287.705L324.384 287.628C324.137 287.355 323.716 287.335 323.443 287.583C323.171 287.829 323.149 288.251 323.397 288.524Z" fill="#17282F"/>
<path d="M342.748 256.795H342.081C342.08 259.611 340.941 262.155 339.096 264C337.249 265.847 334.705 266.985 331.889 266.985C329.073 266.985 326.529 265.847 324.683 264C322.837 262.155 321.699 259.611 321.699 256.795C321.699 253.979 322.837 251.435 324.683 249.588C326.529 247.743 329.073 246.604 331.889 246.604C334.705 246.604 337.249 247.743 339.096 249.588C340.941 251.435 342.08 253.979 342.081 256.795H342.748H343.415C343.413 250.429 338.253 245.271 331.889 245.271C325.524 245.271 320.365 250.429 320.365 256.795C320.365 263.159 325.524 268.319 331.889 268.319C338.255 268.319 343.413 263.159 343.415 256.795H342.748Z" fill="#17282F"/>
<path d="M367.004 256.795H366.337C366.337 259.611 365.197 262.155 363.353 264C361.507 265.847 358.963 266.985 356.147 266.985C353.331 266.985 350.787 265.847 348.941 264C347.096 262.155 345.956 259.611 345.956 256.795C345.956 253.979 347.096 251.435 348.94 249.588C350.787 247.743 353.331 246.604 356.147 246.604C358.964 246.604 361.507 247.743 363.353 249.588C365.197 251.435 366.337 253.979 366.337 256.795H367.004H367.671C367.671 250.429 362.512 245.271 356.147 245.271C349.781 245.271 344.623 250.429 344.623 256.795C344.623 263.159 349.781 268.319 356.147 268.319C362.512 268.319 367.671 263.159 367.671 256.795H367.004Z" fill="#17282F"/>
<path d="M326.121 283.373C326.075 283.383 325.188 283.565 324.04 284.2C322.896 284.832 321.485 285.927 320.452 287.747C319.943 288.653 319.667 289.851 319.489 291.2C319.316 292.547 319.256 294.039 319.256 295.481C319.256 298.965 319.605 302.167 319.607 302.18C319.624 302.333 319.691 302.473 319.801 302.583C319.829 302.601 329.735 312.436 338.344 316.667C338.532 316.759 338.752 316.757 338.939 316.663C339.125 316.568 339.256 316.391 339.293 316.184L341.269 305.069L344.353 316.245C344.411 316.453 344.568 316.623 344.772 316.696C344.976 316.768 345.205 316.737 345.381 316.612C345.393 316.603 348.68 314.28 352.432 310.964C356.184 307.64 360.404 303.36 362.305 299.276L362.361 299.081C362.363 299.067 362.892 295.004 362.892 291.355C362.887 289.52 362.776 287.816 362.321 286.639C361.724 285.111 360.711 284.251 359.805 283.824C358.899 283.393 358.112 283.36 357.852 283.359L357.761 283.36C357.393 283.379 357.111 283.692 357.129 284.06C357.149 284.428 357.463 284.711 357.829 284.692L357.825 284.601L357.828 284.692H357.829L357.825 284.601L357.828 284.692H357.852C357.984 284.691 358.581 284.715 359.231 285.028C359.881 285.344 360.596 285.913 361.08 287.128C361.413 287.947 361.565 289.599 361.559 291.355C361.559 293.117 361.429 295.012 361.299 296.461C361.235 297.187 361.169 297.8 361.12 298.232C361.072 298.664 361.04 298.909 361.04 298.911L361.701 298.996L361.096 298.716C359.375 302.453 355.243 306.708 351.548 309.965C349.701 311.597 347.964 312.989 346.689 313.972C346.053 314.464 345.532 314.852 345.171 315.119C344.809 315.384 344.612 315.523 344.611 315.524L344.996 316.068L345.639 315.891L341.772 301.876C341.689 301.576 341.409 301.373 341.097 301.388C340.787 301.403 340.527 301.629 340.473 301.937L337.98 315.951L338.637 316.068L338.931 315.469C334.796 313.445 330.227 309.98 326.715 307.025C324.957 305.548 323.46 304.197 322.405 303.219C321.877 302.729 321.46 302.332 321.175 302.057C320.889 301.784 320.739 301.635 320.739 301.635L320.269 302.108L320.932 302.036C320.932 302.036 320.912 301.844 320.879 301.496C320.783 300.451 320.589 298.029 320.589 295.481C320.589 294.076 320.648 292.631 320.812 291.371C320.971 290.111 321.249 289.031 321.611 288.405C322.499 286.843 323.7 285.913 324.687 285.367C325.179 285.093 325.615 284.919 325.923 284.815C326.077 284.763 326.199 284.727 326.279 284.707L326.367 284.684L326.387 284.68C326.747 284.607 326.98 284.255 326.908 283.895C326.835 283.533 326.483 283.3 326.121 283.373Z" fill="#17282F"/>
<path d="M311.371 377.647C311.369 377.639 310.4 371.135 308.783 363.295C307.161 355.448 304.912 346.293 302.276 340.871C302.116 340.54 301.716 340.403 301.385 340.564C301.055 340.725 300.917 341.124 301.077 341.455C303.604 346.633 305.872 355.769 307.477 363.564C308.281 367.464 308.925 371.036 309.368 373.632C309.589 374.929 309.76 375.984 309.876 376.712C309.992 377.441 310.052 377.843 310.052 377.843C310.105 378.208 310.445 378.459 310.809 378.404C311.173 378.351 311.425 378.011 311.371 377.647Z" fill="#17282F"/>
<path d="M289.977 318.487C289.977 318.488 290.279 318.908 290.784 319.651C292.299 321.875 295.629 326.955 297.944 331.816C298.103 332.148 298.5 332.289 298.832 332.131C299.165 331.972 299.305 331.575 299.148 331.243C295.987 324.609 291.073 317.729 291.063 317.712C290.848 317.412 290.432 317.343 290.132 317.556C289.833 317.771 289.763 318.187 289.977 318.487Z" fill="#17282F"/>
<path d="M393.067 337.667C394.424 332.511 395.873 327.991 397.287 325.107C397.448 324.776 397.312 324.377 396.981 324.215C396.651 324.053 396.251 324.191 396.089 324.521C394.601 327.564 393.149 332.127 391.777 337.327C391.684 337.683 391.896 338.047 392.252 338.141C392.608 338.235 392.973 338.023 393.067 337.667Z" fill="#17282F"/>
<path d="M385.065 377.848C385.065 377.845 385.24 376.739 385.553 374.841C386.495 369.151 388.692 356.385 391.184 345.4C391.265 345.041 391.04 344.684 390.681 344.603C390.323 344.521 389.965 344.747 389.884 345.105C386.548 359.817 383.749 377.635 383.748 377.641C383.691 378.005 383.939 378.347 384.303 378.404C384.667 378.461 385.008 378.212 385.065 377.848Z" fill="#17282F"/>
<path d="M389.684 353.148C392.257 349.711 396.003 347.151 400.137 346C400.492 345.901 400.7 345.535 400.601 345.18C400.501 344.825 400.135 344.617 399.78 344.716C395.355 345.949 391.373 348.672 388.616 352.349C388.396 352.644 388.456 353.061 388.751 353.283C389.045 353.503 389.463 353.443 389.684 353.148Z" fill="#17282F"/>
<path d="M361.979 297.252C361.983 297.253 384.509 306.252 399.073 311.371L399.295 310.743L398.837 311.228L398.88 311.269C399.856 312.221 417.173 329.673 435.729 386.044L436.363 385.836L435.789 385.496C435.789 385.496 435.725 385.603 435.592 385.817C433.583 389.044 416.232 415.447 385.172 424.238C384.819 424.339 384.612 424.707 384.713 425.062C384.813 425.415 385.181 425.621 385.536 425.52C419.259 415.94 436.891 386.232 436.935 386.177C437.033 386.011 437.056 385.811 436.996 385.628C417.789 327.279 399.849 310.349 399.751 310.257L399.516 310.113C392.259 307.563 382.995 304.037 375.548 301.149C371.825 299.705 368.556 298.421 366.217 297.499C363.879 296.576 362.476 296.016 362.473 296.013C362.131 295.877 361.743 296.044 361.607 296.385C361.469 296.728 361.636 297.116 361.979 297.252Z" fill="#17282F"/>
<path d="M391.588 398.124L407.739 384.639L407.312 384.127L407.715 384.657L407.759 384.625C408.244 384.263 412.685 381.177 418.149 381.188C420.145 381.189 422.277 381.589 424.444 382.672C424.773 382.836 425.173 382.703 425.339 382.373C425.503 382.044 425.369 381.644 425.04 381.48C422.677 380.297 420.324 379.855 418.149 379.855C411.789 379.868 406.965 383.563 406.908 383.596L406.884 383.615L390.733 397.1C390.451 397.336 390.412 397.757 390.648 398.04C390.884 398.323 391.305 398.36 391.588 398.124Z" fill="#17282F"/>
<path d="M389.983 351.493C389.983 351.495 390.188 351.796 390.559 352.357C391.853 354.321 395.147 359.428 398.484 365.487C401.821 371.543 405.2 378.565 406.665 384.292C406.757 384.649 407.12 384.864 407.477 384.772C407.833 384.681 408.048 384.317 407.957 383.961C406.215 377.177 402 368.907 398.22 362.293C394.44 355.684 391.092 350.753 391.085 350.744C390.879 350.44 390.464 350.36 390.16 350.567C389.855 350.773 389.776 351.188 389.983 351.493Z" fill="#17282F"/>
<path d="M299.719 388.151L294.993 383.644C294.896 383.552 294.779 383.493 294.648 383.469C294.616 383.464 293.88 383.337 292.631 383.337C289.92 383.337 284.772 383.936 279.2 387.673C278.895 387.879 278.813 388.292 279.019 388.598C279.223 388.904 279.637 388.985 279.943 388.78C285.249 385.223 290.111 384.672 292.631 384.671C293.211 384.671 293.665 384.7 293.971 384.729C294.124 384.744 294.24 384.757 294.315 384.768L294.397 384.78L294.417 384.783L294.533 384.127L294.073 384.609L298.799 389.116C299.065 389.369 299.488 389.36 299.741 389.093C299.996 388.827 299.985 388.404 299.719 388.151Z" fill="#17282F"/>
<path d="M295.171 384.321C295.172 384.317 295.535 383.123 296.175 381.165C298.088 375.296 302.484 362.585 306.771 355.223C306.956 354.904 306.848 354.496 306.529 354.311C306.211 354.125 305.803 354.233 305.617 354.552C302.683 359.603 299.765 366.929 297.565 373.013C295.368 379.096 293.897 383.925 293.895 383.932C293.788 384.284 293.987 384.657 294.339 384.764C294.691 384.872 295.063 384.673 295.171 384.321Z" fill="#17282F"/>
<path d="M319.688 298.372C319.684 298.373 311.579 301.415 303.069 304.901C298.813 306.645 294.457 308.5 290.956 310.147C289.204 310.969 287.665 311.74 286.452 312.425C285.235 313.117 284.359 313.688 283.843 314.252C283.521 314.624 283.303 315.121 283.02 315.849C282.003 318.543 280.605 324.251 279.044 331.493C276.707 342.347 274.029 356.583 271.908 368.796C270.847 374.903 269.924 380.503 269.253 384.921C268.581 389.348 268.161 392.564 268.101 394.004L268.099 394.15C268.103 395.228 268.559 396.335 269.303 397.503C270.612 399.543 272.86 401.807 275.677 404.191C284.124 411.328 297.709 419.479 305.883 423.8C306.208 423.972 306.612 423.848 306.784 423.523C306.956 423.197 306.831 422.793 306.505 422.621C300.333 419.36 290.989 413.856 283.217 408.311C279.332 405.54 275.837 402.755 273.341 400.257C272.093 399.009 271.096 397.832 270.427 396.784C269.752 395.738 269.427 394.824 269.432 394.15L269.433 394.059C269.507 392.204 270.32 386.465 271.545 378.957C273.383 367.679 276.149 352.308 278.752 339.435C280.053 332.999 281.315 327.185 282.396 322.827C282.936 320.648 283.432 318.832 283.861 317.493C284.076 316.825 284.275 316.276 284.448 315.868C284.617 315.464 284.783 315.192 284.835 315.143C285.113 314.821 285.945 314.236 287.108 313.585C291.203 311.273 299.493 307.765 306.724 304.857C310.341 303.401 313.701 302.092 316.155 301.147C318.609 300.201 320.152 299.621 320.156 299.62C320.501 299.491 320.676 299.107 320.547 298.763C320.417 298.417 320.032 298.243 319.688 298.372Z" fill="#17282F"/>
<path d="M437.245 288.076H400.317C395.957 288.076 392.423 284.541 392.423 280.181V258.519C392.423 254.157 395.957 250.623 400.317 250.623H437.245C441.605 250.623 445.14 254.157 445.14 258.519V280.181C445.14 284.541 441.605 288.076 437.245 288.076Z" fill="white"/>
<path d="M437.245 288.076V287.409H400.317C398.32 287.409 396.516 286.601 395.207 285.292C393.897 283.983 393.089 282.18 393.089 280.181V258.519C393.089 256.52 393.897 254.717 395.207 253.407C396.516 252.097 398.32 251.291 400.317 251.289H437.245C439.243 251.291 441.047 252.097 442.356 253.407C443.665 254.717 444.472 256.52 444.473 258.519V280.181C444.472 282.18 443.665 283.983 442.356 285.292C441.047 286.601 439.244 287.409 437.245 287.409V288.076V288.743C441.973 288.743 445.805 284.911 445.807 280.181V258.519C445.805 253.789 441.975 249.957 437.245 249.956H400.317C395.589 249.957 391.756 253.789 391.756 258.519V280.181C391.756 284.911 395.589 288.741 400.317 288.743H437.245V288.076Z" fill="#17282F"/>
<path d="M409.076 261.323L398.94 267.687C398.763 267.799 398.647 267.988 398.631 268.196C398.613 268.405 398.696 268.611 398.852 268.751L408.259 277.093C408.533 277.339 408.955 277.313 409.2 277.037C409.444 276.763 409.419 276.341 409.143 276.096L400.403 268.343L409.785 262.452C410.097 262.256 410.192 261.844 409.996 261.532C409.8 261.22 409.388 261.127 409.076 261.323Z" fill="#17282F"/>
<path d="M428.336 277.708L437.445 269.945C437.605 269.809 437.692 269.605 437.679 269.396C437.665 269.187 437.553 268.995 437.379 268.88L426.863 261.985C426.555 261.784 426.141 261.869 425.94 262.177C425.739 262.485 425.824 262.899 426.132 263.101L435.904 269.508L427.472 276.693C427.191 276.932 427.157 277.353 427.396 277.633C427.635 277.913 428.056 277.947 428.336 277.708Z" fill="#17282F"/>
<path d="M414.995 282.18L422.477 258.716C422.589 258.365 422.396 257.989 422.045 257.879C421.695 257.767 421.32 257.96 421.208 258.311L413.724 281.776C413.612 282.127 413.807 282.501 414.157 282.613C414.508 282.725 414.883 282.532 414.995 282.18Z" fill="#17282F"/>
<path d="M344.156 321.973C344.156 323.149 343.201 324.104 342.025 324.104C340.848 324.104 339.893 323.149 339.893 321.973C339.893 320.796 340.848 319.841 342.025 319.841C343.201 319.841 344.156 320.796 344.156 321.973Z" fill="#17282F"/>
<path d="M381.655 435.857H307.903C306.948 435.857 306.173 435.084 306.173 434.128C306.173 433.173 306.948 432.398 307.903 432.398H381.655C382.611 432.398 383.384 433.173 383.384 434.128C383.384 435.084 382.611 435.857 381.655 435.857Z" fill="#17282F"/>
<path d="M384.237 430.125L394.12 383.712C394.775 380.64 392.431 377.745 389.289 377.745H303.119C300.008 377.745 297.671 380.588 298.273 383.641L307.135 428.509C307.584 430.781 309.551 432.436 311.868 432.49L379.293 434.035C381.665 434.09 383.743 432.447 384.237 430.125Z" fill="white"/>
<path d="M384.237 430.125L384.889 430.264L394.772 383.851C394.856 383.456 394.897 383.061 394.897 382.673C394.897 379.653 392.449 377.081 389.289 377.079H303.119C299.964 377.081 297.512 379.649 297.512 382.673C297.512 383.035 297.547 383.401 297.62 383.769L306.48 428.639C306.991 431.217 309.223 433.096 311.852 433.156L379.277 434.7L379.408 434.703C382.047 434.702 384.336 432.856 384.889 430.264L384.237 430.125L383.585 429.986C383.164 431.961 381.417 433.369 379.408 433.369L379.308 433.368L311.883 431.823C309.879 431.778 308.177 430.345 307.788 428.38L298.928 383.512C298.872 383.228 298.845 382.948 298.845 382.673C298.845 381.525 299.312 380.46 300.081 379.68C300.852 378.9 301.913 378.412 303.119 378.412H389.289C390.497 378.412 391.559 378.901 392.329 379.681C393.099 380.461 393.564 381.527 393.564 382.673C393.564 382.968 393.533 383.269 393.468 383.573L383.585 429.986L384.237 430.125Z" fill="#17282F"/>
<path d="M352.791 404.492C352.791 408.292 349.709 411.371 345.911 411.371C342.111 411.371 339.032 408.292 339.032 404.492C339.032 400.693 342.111 397.612 345.911 397.612C349.709 397.612 352.791 400.693 352.791 404.492Z" fill="#17282F"/>
<path d="M366.312 382.815H376.549C376.917 382.815 377.216 382.517 377.216 382.148C377.216 381.78 376.917 381.481 376.549 381.481H366.312C365.943 381.481 365.645 381.78 365.645 382.148C365.645 382.517 365.943 382.815 366.312 382.815Z" fill="#17282F"/>
<path d="M317.42 382.815H356.283C356.651 382.815 356.949 382.517 356.949 382.148C356.949 381.78 356.651 381.481 356.283 381.481H317.42C317.051 381.481 316.753 381.78 316.753 382.148C316.753 382.517 317.051 382.815 317.42 382.815Z" fill="#17282F"/>
<path d="M384.407 479.365L376.549 499.981C376.549 499.981 356.519 494.933 330.852 489.673C304.013 484.173 275.981 477.053 261.441 451.544C259.669 448.435 258.489 444.76 259.319 441.278C261.419 432.467 272.88 430.076 280.436 429.193C285.177 428.64 289.964 428.456 294.736 428.39C297.168 428.355 305.193 427.081 307.135 428.509C307.136 428.509 312.171 432.215 316.461 434.036C320.752 435.857 383.384 432.398 383.384 432.398C383.384 432.398 385.247 428.468 385.355 424.879C395.2 419.875 417.997 415.637 427.631 417.509C442.779 420.455 451.615 429.291 449.932 438.548C448.249 447.805 414.819 472.632 384.407 479.365Z" fill="#17282F"/>
<path d="M384.577 478.72C384.576 478.72 384.288 478.644 383.741 478.486C379.917 477.39 363.672 472.377 350.159 463.244C343.105 458.48 336.72 453.336 329.768 449.362C322.819 445.388 315.281 442.593 306.013 442.596C304.175 442.596 302.268 442.705 300.287 442.936C299.92 442.979 299.659 443.309 299.701 443.675C299.744 444.041 300.075 444.303 300.44 444.26C302.373 444.035 304.228 443.929 306.013 443.929C315.008 443.931 322.275 446.619 329.105 450.519C335.933 454.419 342.301 459.541 349.412 464.348C365.105 474.947 384.2 479.996 384.236 480.009C384.592 480.104 384.956 479.892 385.051 479.536C385.145 479.18 384.933 478.815 384.577 478.72Z" fill="white"/>
<path d="M346.389 461.955C356.401 459.068 363.688 452.626 371.556 446.541C379.899 440.081 388.704 433.84 398.151 429.062C398.48 428.896 398.612 428.495 398.445 428.167C398.279 427.838 397.879 427.707 397.549 427.873C387.984 432.712 379.112 439.004 370.739 445.488C362.825 451.62 355.675 457.898 346.02 460.673C345.667 460.774 345.463 461.144 345.564 461.498C345.665 461.852 346.035 462.056 346.389 461.955Z" fill="white"/>
<path d="M342.748 259.18H345.633C346.001 259.18 346.3 258.881 346.3 258.513C346.3 258.145 346.001 257.847 345.633 257.847H342.748C342.38 257.847 342.081 258.145 342.081 258.513C342.081 258.881 342.38 259.18 342.748 259.18Z" fill="#17282F"/>
</g>
<defs>
<clipPath id="clip0_153_1906">
<rect width="559.48" height="520.933" fill="white"/>
</clipPath>
</defs>
</svg>
