<?xml version="1.0" encoding="UTF-8"?>
<!DOCTYPE svg PUBLIC "-//W3C//DTD SVG 1.1//EN" "http://www.w3.org/Graphics/SVG/1.1/DTD/svg11.dtd">
<!-- Creator: CorelDRAW X7 -->
<svg xmlns="http://www.w3.org/2000/svg" xml:space="preserve" width="38.3057mm" height="49.8861mm" version="1.1" style="shape-rendering:geometricPrecision; text-rendering:geometricPrecision; image-rendering:optimizeQuality; fill-rule:evenodd; clip-rule:evenodd"
viewBox="0 0 2793 3637"
 xmlns:xlink="http://www.w3.org/1999/xlink">
 <defs>
  <style type="text/css">
   <![CDATA[
    .fil0 {fill: #0abeff}
    .fil1 {fill:#fff}
   ]]>
  </style>
 </defs>
 <g id="Layer_x0020_1">
  <metadata id="CorelCorpID_0Corel-Layer"/>
  <path class="fil0" d="M2116 860c-8,454 35,1027 -5,1462 -35,391 -403,712 -845,638 -885,-148 -796,-1603 336,-1416 -58,127 -282,309 -390,418 -141,142 -275,268 -410,411 24,227 233,433 459,462 224,-198 419,-433 645,-641 78,-71 93,-65 96,-205l-3 -979c-328,-278 -1395,-258 -1849,611 -347,665 -73,1524 636,1871 805,394 1590,-81 1856,-640 183,-383 136,-801 135,-1251 0,-433 -229,-746 -661,-741z"/>
  <circle class="fil1" cx="2442" cy="350" r="350"/>
 </g>
</svg>
