<svg id="eZHMqyjGEF51" xmlns="http://www.w3.org/2000/svg" xmlns:xlink="http://www.w3.org/1999/xlink" viewBox="0 0 491 412" shape-rendering="geometricPrecision" text-rendering="geometricPrecision" style="background-color:transparent"><g clip-path="url(#eZHMqyjGEF586)"><g><path d="M442.529,214.411c.064,50.981-20.382,100-57.042,136.754-2.21,2.23-4.479,4.406-6.809,6.529-3.549,3.253-7.217,6.38-11.004,9.382-35.43,28.131-79.66,43.939-125.555,44.874-1.529.033-3.064.05-4.605.05-36.603,0-82.64-18.842-124.419-44.924-3.456-2.158-6.882-4.366-10.277-6.624-1.587-1.045-3.166-2.106-4.7375-3.181-16.1134-10.966-31.4083-23.008-45.7718-36.038-9.4043-8.505-18.2231-17.593-26.4002-27.206-32.10143-38.161-39.1819-72.547,6.5842-79.616c5.4185-.834,10.6774-1.725,15.7766-2.675c7.3863-1.368,14.4552-2.845,21.2067-4.432c9.0944-2.13,17.6386-4.44,25.6327-6.929c2.6891-.835,5.3163-1.685,7.8823-2.553c37.936-12.841,63.326-29.586,80.609-47.755c2.931-3.076,5.634-6.188,8.107-9.338c3.785-4.794,7.223-9.833,10.289-15.082c4.233-7.293,7.788-14.933,10.624-22.829l.156-.434c13.751-38.2287,9.567-73.6878,24.738-85.5557c64.849-50.736,145.584,21.5168,183.48,106.7217c1.91,4.294,3.706,8.613,5.389,12.958.756,1.941,1.485,3.886,2.187,5.834c1.847,5.078,3.522,10.168,5.026,15.271.577,1.947,1.128,3.892,1.651,5.834.559,2.097,1.096,4.188,1.592,6.279c3.688,15.31,5.69,30.409,5.69,44.685Z" fill="#f2f2f2"/><path d="M242.119,411.95c-1.529.033-3.064.05-4.605.05-36.603,0-82.64-18.842-124.419-44.924-3.456-2.158-6.882-4.366-10.277-6.624l2.978-17.463l90.141-11.534l45.241,33.34.941,47.155Z" fill="#2f2e41"/><path d="M246.458,100.132h-12.845c-.398,0-.779.152-1.061.423-.281.271-.439.639-.439,1.022v12.386c0,.189.039.377.114.552.076.175.186.334.326.468.139.133.304.239.486.312.182.072.377.109.574.108h12.845c.397,0,.778-.151,1.059-.421s.44-.637.441-1.019v-12.386c-.001-.383-.159-.75-.44-1.021s-.662-.423-1.06-.424v0Z" fill="#fff"/><path d="M246.458,121.237h-12.845c-.398,0-.779.152-1.061.424-.281.271-.439.638-.439,1.022v12.385c0,.189.039.377.114.552.076.175.186.334.326.468.139.134.304.24.486.312s.377.109.574.108h12.845c.397,0,.778-.151,1.059-.421s.44-.637.441-1.019v-12.385c-.001-.383-.159-.751-.44-1.021-.281-.271-.662-.424-1.06-.425Z" fill="#e6e6e6"/><path d="M246.458,142.342h-12.845c-.398,0-.779.153-1.061.424-.281.271-.439.639-.439,1.022v12.38c-.001.19.038.378.113.553.075.176.186.336.325.47.14.134.305.241.487.313.182.073.378.11.575.109h12.845c.398,0,.779-.152,1.061-.423.281-.271.439-.639.439-1.022v-12.38c-.001-.383-.159-.75-.44-1.021s-.662-.424-1.06-.425v0Z" fill="#e6e6e6"/><path d="M247.935,164.637c-.064-.333-.246-.634-.516-.851s-.609-.337-.961-.339h-12.845c-.398,0-.779.153-1.061.424-.281.271-.439.639-.439,1.022v12.38c-.001.19.038.378.113.554.075.175.186.335.325.469.14.134.305.241.487.313.182.073.378.11.575.11h12.845c.398,0,.779-.153,1.061-.424.281-.271.439-.639.439-1.022v-12.38c.002-.086-.006-.171-.023-.256v0Z" fill="#e6e6e6"/><path d="M247.041,184.664c-.185-.074-.383-.112-.583-.111h-12.845c-.197-.001-.392.036-.575.109-.182.072-.347.179-.487.313-.139.135-.25.294-.325.47-.075.175-.114.364-.113.554v12.379c-.001.19.037.379.112.554.075.176.186.336.325.47.14.135.305.241.488.314.182.072.378.109.575.108h12.845c.398,0,.78-.152,1.061-.424.281-.271.439-.638.439-1.022v-12.379c0-.285-.088-.563-.251-.8-.163-.238-.394-.424-.666-.535Z" fill="#e6e6e6"/><path d="M273.441,100.132h-12.845c-.398,0-.779.152-1.061.423-.281.271-.439.639-.439,1.022v12.386c0,.189.039.377.114.552.076.175.187.334.326.468.139.133.305.239.486.312.182.072.377.109.574.108h12.845c.397,0,.778-.151,1.059-.421s.44-.637.442-1.019v-12.386c-.002-.383-.16-.75-.441-1.021s-.662-.423-1.06-.424v0Z" fill="#e6e6e6"/><path d="M273.441,121.237h-12.845c-.398,0-.779.152-1.061.424-.281.271-.439.638-.439,1.022v12.385c0,.189.039.377.114.552.076.175.187.334.326.468s.305.24.486.312c.182.072.377.109.574.108h12.845c.397,0,.778-.151,1.059-.421s.44-.637.442-1.019v-12.385c-.002-.383-.16-.751-.441-1.021-.281-.271-.662-.424-1.06-.425Z" fill="#6c63ff"/><path d="M273.441,142.342h-12.845c-.398,0-.779.153-1.061.424-.281.271-.439.639-.439,1.022v12.38c-.001.19.038.378.113.553.075.176.186.336.325.47.14.134.305.241.487.313.183.073.378.11.575.109h12.845c.398,0,.779-.152,1.061-.423.281-.271.439-.639.44-1.022v-12.38c-.002-.383-.16-.75-.441-1.021s-.662-.424-1.06-.425v0Z" fill="#6c63ff"/><path d="M273.441,163.447h-12.845c-.315,0-.621.096-.876.274s-.445.428-.544.716c-.053.147-.08.301-.08.456v12.38c-.001.19.038.378.113.554.075.175.186.335.325.469.14.134.305.241.487.313.183.073.378.11.575.11h12.845c.398,0,.779-.153,1.061-.424.281-.271.439-.639.44-1.022v-12.38c-.002-.383-.16-.75-.441-1.021s-.662-.424-1.06-.425v0Z" fill="#6c63ff"/><path d="M273.441,184.553h-12.845c-.197-.001-.392.036-.575.109-.182.072-.347.179-.487.313-.139.135-.25.294-.325.47-.075.175-.114.364-.113.554v12.379c-.001.19.038.378.113.554.075.175.186.335.325.469.14.135.305.241.487.314.183.072.378.109.575.109h12.845c.398,0,.78-.152,1.061-.424.281-.271.439-.638.44-1.022v-12.379c-.001-.384-.159-.752-.44-1.023s-.663-.423-1.061-.423v0Z" fill="#e6e6e6"/><path d="M300.424,100.132h-12.845c-.398,0-.779.152-1.061.423-.281.271-.439.639-.439,1.022v12.386c0,.189.039.377.114.552.076.175.186.334.326.468.139.133.305.239.486.312.182.072.377.109.574.108h12.845c.397,0,.778-.151,1.059-.421s.44-.637.441-1.019v-12.386c-.001-.383-.159-.75-.44-1.021s-.662-.423-1.06-.424v0Z" fill="#6c63ff"/><path d="M300.424,121.237h-12.845c-.398,0-.779.152-1.061.424-.281.271-.439.638-.439,1.022v12.385c0,.189.039.377.114.552.076.175.186.334.326.468.139.134.305.24.486.312.182.072.377.109.574.108h12.845c.397,0,.778-.151,1.059-.421s.44-.637.441-1.019v-12.385c-.001-.383-.159-.751-.44-1.021-.281-.271-.662-.424-1.06-.425Z" fill="#6c63ff"/><path d="M300.424,142.342h-12.845c-.398,0-.779.153-1.061.424-.281.271-.439.639-.439,1.022v12.38c-.001.19.038.378.113.553.075.176.186.336.325.47.14.134.305.241.487.313.183.073.378.11.575.109h12.845c.398,0,.779-.152,1.061-.423.281-.271.439-.639.439-1.022v-12.38c-.001-.383-.159-.75-.44-1.021s-.662-.424-1.06-.425v0Z" fill="#e6e6e6"/><path d="M300.424,163.447h-12.845c-.398,0-.779.153-1.061.424-.281.271-.439.639-.439,1.022v12.38c-.001.19.038.378.113.554.075.175.186.335.325.469.14.134.305.241.487.313.183.073.378.11.575.11h12.845c.398,0,.779-.153,1.061-.424.281-.271.439-.639.439-1.022v-12.38c-.001-.383-.159-.75-.44-1.021s-.662-.424-1.06-.425v0Z" fill="#6c63ff"/><path d="M300.424,184.553h-12.845c-.197-.001-.392.036-.575.109-.182.072-.347.179-.487.313-.139.135-.25.294-.325.47-.075.175-.114.364-.113.554v12.379c-.001.19.038.378.113.554.075.175.186.335.325.469.14.135.305.241.487.314.183.072.378.109.575.109h12.845c.398,0,.78-.152,1.061-.424.281-.271.439-.638.439-1.022v-12.379c0-.384-.158-.752-.439-1.023-.282-.271-.663-.423-1.061-.423v0Z" fill="#6c63ff"/><path d="M327.407,100.132h-12.845c-.398,0-.779.152-1.061.423-.281.271-.439.639-.439,1.022v12.386c0,.189.039.377.114.552.076.175.186.334.326.468.139.133.304.239.486.312.182.072.377.109.574.108h12.845c.397,0,.778-.151,1.059-.421s.44-.637.441-1.019v-12.386c-.001-.383-.159-.75-.44-1.021s-.662-.423-1.06-.424v0Z" fill="#6c63ff"/><path d="M327.407,121.237h-12.845c-.398,0-.779.152-1.061.424-.281.271-.439.638-.439,1.022v12.385c0,.189.039.377.114.552.076.175.186.334.326.468.139.134.304.24.486.312s.377.109.574.108h12.845c.397,0,.778-.151,1.059-.421s.44-.637.441-1.019v-12.385c-.001-.383-.159-.751-.44-1.021-.281-.271-.662-.424-1.06-.425v0Z" fill="#fff"/><path d="M327.407,142.342h-12.845c-.398,0-.779.153-1.061.424-.281.271-.439.639-.439,1.022v12.38c-.001.19.038.378.113.553.075.176.186.336.325.47.14.134.305.241.487.313.182.073.378.11.575.109h12.845c.398,0,.779-.152,1.061-.423.281-.271.439-.639.439-1.022v-12.38c-.001-.383-.159-.75-.44-1.021s-.662-.424-1.06-.425v0Z" fill="#fff"/><path d="M327.407,163.447h-12.845c-.398,0-.779.153-1.061.424-.281.271-.439.639-.439,1.022v12.38c-.001.19.038.378.113.554.075.175.186.335.325.469.14.134.305.241.487.313.182.073.378.11.575.11h12.845c.398,0,.779-.153,1.061-.424.281-.271.439-.639.439-1.022v-12.38c-.001-.383-.159-.75-.44-1.021s-.662-.424-1.06-.425v0Z" fill="#e6e6e6"/><path d="M327.407,184.553h-12.845c-.197-.001-.393.036-.575.109-.182.072-.347.179-.487.313-.139.135-.25.294-.325.47-.075.175-.114.364-.113.554v12.379c-.001.19.038.378.113.554.075.175.186.335.325.469.14.135.305.241.487.314.182.072.378.109.575.109h12.845c.398,0,.779-.152,1.061-.424.281-.271.439-.638.439-1.022v-12.379c0-.384-.158-.752-.439-1.023-.282-.271-.663-.423-1.061-.423v0Z" fill="#6c63ff"/><path d="M354.39,121.237h-12.851c-.397.001-.777.154-1.057.425s-.438.638-.437,1.021v12.385c0,.382.157.748.437,1.018.281.27.661.422,1.057.422h12.851c.397,0,.778-.151,1.059-.421s.44-.637.441-1.019v-12.385c-.001-.383-.159-.751-.44-1.021-.281-.271-.662-.424-1.06-.425v0Z" fill="#fff"/><path d="M354.39,142.342h-12.851c-.397.001-.777.154-1.057.425s-.438.638-.437,1.021v12.38c-.001.189.037.377.112.552.075.176.185.335.324.469.139.135.303.241.485.314s.376.11.573.11h12.851c.398,0,.779-.152,1.061-.423.281-.271.439-.639.439-1.022v-12.38c-.001-.383-.159-.75-.44-1.021s-.662-.424-1.06-.425v0Z" fill="#fff"/><path d="M354.39,163.447h-12.851c-.397.002-.777.155-1.057.426s-.438.638-.437,1.02v12.38c-.001.189.037.377.112.552.075.176.185.335.324.469.139.135.303.241.485.314s.376.111.573.111h12.851c.398,0,.779-.153,1.061-.424.281-.271.439-.639.439-1.022v-12.38c-.001-.383-.159-.75-.44-1.021s-.662-.424-1.06-.425v0Z" fill="#6c63ff"/><path d="M354.39,184.553h-12.851c-.197,0-.391.037-.573.11s-.346.18-.485.314-.249.294-.324.469-.113.363-.112.553v12.379c-.001.19.037.377.112.553.075.175.185.334.324.469.139.134.303.241.485.313.182.073.376.111.573.111h12.851c.398,0,.779-.153,1.061-.424.281-.271.439-.638.439-1.022v-12.379c0-.384-.158-.752-.439-1.023-.282-.271-.663-.423-1.061-.423v0Z" fill="#e6e6e6"/><path d="M381.373,100.132h-12.851c-.397.001-.777.154-1.057.425s-.438.638-.438,1.02v12.386c.001.382.158.748.438,1.018.281.27.661.422,1.057.422h12.851c.397,0,.778-.151,1.059-.421s.44-.637.441-1.019v-12.386c-.001-.383-.159-.75-.44-1.021s-.662-.423-1.06-.424v0Z" fill="#fff"/><path d="M381.373,121.237h-12.851c-.397.001-.777.154-1.057.425s-.438.638-.438,1.021v12.385c.001.382.158.748.438,1.018.281.27.661.422,1.057.422h12.851c.397,0,.778-.151,1.059-.421s.44-.637.441-1.019v-12.385c-.001-.383-.159-.751-.44-1.021-.281-.271-.662-.424-1.06-.425v0Z" fill="#fff"/><path d="M381.373,142.342h-12.851c-.397.001-.777.154-1.057.425s-.438.638-.437,1.021v12.38c-.001.189.037.377.112.552.075.176.185.335.324.469.138.135.303.241.485.314s.376.11.573.11h12.851c.398,0,.779-.152,1.061-.423.281-.271.439-.639.439-1.022v-12.38c-.001-.383-.159-.75-.44-1.021s-.662-.424-1.06-.425v0Z" fill="#6c63ff"/><path d="M381.373,163.447h-12.851c-.397.002-.777.155-1.057.426s-.438.638-.437,1.02v12.38c-.001.189.037.377.112.552.075.176.185.335.324.469.138.135.303.241.485.314s.376.111.573.111h12.851c.398,0,.779-.153,1.061-.424.281-.271.439-.639.439-1.022v-12.38c-.001-.383-.159-.75-.44-1.021s-.662-.424-1.06-.425v0Z" fill="#e6e6e6"/><path d="M381.373,184.553h-12.851c-.197,0-.391.037-.573.11s-.347.18-.485.314c-.139.134-.249.294-.324.469s-.113.363-.112.553v12.379c-.001.19.037.377.112.553.075.175.185.334.324.469.138.134.303.241.485.313.182.073.376.111.573.111h12.851c.398,0,.779-.153,1.061-.424.281-.271.439-.638.439-1.022v-12.379c0-.384-.158-.752-.439-1.023-.282-.271-.663-.423-1.061-.423Z" fill="#fff"/><path d="M408.356,100.132h-12.851c-.397.001-.777.154-1.057.425s-.438.638-.437,1.02v12.386c0,.382.157.748.437,1.018.281.27.661.422,1.057.422h12.851c.397,0,.778-.151,1.059-.421s.44-.637.441-1.019v-12.386c-.001-.383-.159-.75-.44-1.021s-.662-.423-1.06-.424v0Z" fill="#6c63ff"/><path d="M408.356,121.237h-12.851c-.397.001-.777.154-1.057.425s-.438.638-.437,1.021v12.385c0,.382.157.748.437,1.018.281.27.661.422,1.057.422h12.851c.397,0,.778-.151,1.059-.421s.44-.637.441-1.019v-12.385c-.001-.383-.159-.751-.44-1.021-.281-.271-.662-.424-1.06-.425Z" fill="#6c63ff"/><path d="M408.356,142.342h-12.851c-.397.001-.777.154-1.057.425s-.438.638-.437,1.021v12.38c-.001.189.037.377.112.552.075.176.185.335.324.469.139.135.303.241.485.314s.376.11.573.11h12.851c.398,0,.779-.152,1.061-.423.281-.271.439-.639.439-1.022v-12.38c-.001-.383-.159-.75-.44-1.021s-.662-.424-1.06-.425v0Z" fill="#e6e6e6"/><path d="M408.356,163.447h-12.851c-.397.002-.777.155-1.057.426s-.438.638-.437,1.02v12.38c-.001.189.037.377.112.552.075.176.185.335.324.469.139.135.303.241.485.314s.376.111.573.111h12.851c.398,0,.779-.153,1.061-.424.281-.271.439-.639.439-1.022v-12.38c-.001-.383-.159-.75-.44-1.021s-.662-.424-1.06-.425v0Z" fill="#fff"/><path d="M408.356,184.553h-12.851c-.197,0-.391.037-.573.11s-.346.18-.485.314-.249.294-.324.469-.113.363-.112.553v12.379c-.001.19.037.377.112.553.075.175.185.334.324.469.139.134.303.241.485.313.182.073.376.111.573.111h12.851c.398,0,.779-.153,1.061-.424.281-.271.439-.638.439-1.022v-12.379c0-.384-.158-.752-.439-1.023-.282-.271-.663-.423-1.061-.423Z" fill="#6c63ff"/><path d="M435.339,100.132h-12.851c-.397.001-.777.154-1.057.425s-.438.638-.437,1.02v12.386c0,.382.157.748.437,1.018.281.27.661.422,1.057.422h12.851c.397,0,.778-.151,1.059-.421s.44-.637.441-1.019v-12.386c-.001-.383-.159-.75-.44-1.021s-.662-.423-1.06-.424Z" fill="#6c63ff"/><path d="M435.339,121.237h-12.851c-.397.001-.777.154-1.057.425s-.438.638-.437,1.021v12.385c0,.382.157.748.437,1.018.281.27.661.422,1.057.422h12.851c.397,0,.778-.151,1.059-.421s.44-.637.441-1.019v-12.385c-.001-.383-.159-.751-.44-1.021-.281-.271-.662-.424-1.06-.425v0Z" fill="#6c63ff"/><path d="M435.339,142.342h-12.851c-.397.001-.777.154-1.057.425s-.438.638-.437,1.021v12.38c-.001.189.037.377.112.552.075.176.185.335.324.469.139.135.303.241.485.314s.376.11.573.11h12.851c.398,0,.779-.152,1.061-.423.281-.271.439-.639.439-1.022v-12.38c-.001-.383-.159-.75-.44-1.021s-.662-.424-1.06-.425Z" fill="#e6e6e6"/><path d="M435.339,163.447h-12.851c-.397.002-.777.155-1.057.426s-.438.638-.437,1.02v12.38c-.001.189.037.377.112.552.075.176.185.335.324.469.139.135.303.241.485.314s.376.111.573.111h12.851c.398,0,.779-.153,1.061-.424.281-.271.439-.639.439-1.022v-12.38c-.001-.383-.159-.75-.44-1.021s-.662-.424-1.06-.425v0Z" fill="#6c63ff"/><path d="M435.339,184.553h-12.851c-.197,0-.391.037-.573.11s-.346.18-.485.314-.249.294-.324.469-.113.363-.112.553v12.379c-.001.19.037.377.112.553.075.175.185.334.324.469.139.134.303.241.485.313.182.073.376.111.573.111h12.851c.398,0,.779-.153,1.061-.424.281-.271.439-.638.439-1.022v-12.379c0-.384-.158-.752-.439-1.023-.282-.271-.663-.423-1.061-.423v0Z" fill="#6c63ff"/><path d="M462.322,100.132h-12.851c-.397.001-.777.154-1.057.425s-.438.638-.437,1.02v12.386c0,.382.157.748.437,1.018.281.27.661.422,1.057.422h12.851c.397,0,.778-.151,1.059-.421s.44-.637.441-1.019v-12.386c-.001-.383-.159-.75-.44-1.021s-.662-.423-1.06-.424v0Z" fill="#e6e6e6"/><path d="M462.322,121.237h-12.851c-.397.001-.777.154-1.057.425s-.438.638-.437,1.021v12.385c0,.382.157.748.437,1.018.281.27.661.422,1.057.422h12.851c.397,0,.778-.151,1.059-.421s.44-.637.441-1.019v-12.385c-.001-.383-.159-.751-.44-1.021-.281-.271-.662-.424-1.06-.425v0Z" fill="#6c63ff"/><path d="M462.322,142.342h-12.851c-.397.001-.777.154-1.057.425s-.438.638-.437,1.021v12.38c-.001.189.037.377.112.552.075.176.185.335.324.469.138.135.303.241.485.314s.376.11.573.11h12.851c.398,0,.779-.152,1.061-.423.281-.271.439-.639.439-1.022v-12.38c-.001-.383-.159-.75-.44-1.021s-.662-.424-1.06-.425v0Z" fill="#6c63ff"/><path d="M462.322,163.447h-12.851c-.397.002-.777.155-1.057.426s-.438.638-.437,1.02v12.38c-.001.189.037.377.112.552.075.176.185.335.324.469.138.135.303.241.485.314s.376.111.573.111h12.851c.398,0,.779-.153,1.061-.424.281-.271.439-.639.439-1.022v-12.38c-.001-.383-.159-.75-.44-1.021s-.662-.424-1.06-.425v0Z" fill="#6c63ff"/><path d="M462.322,184.553h-12.851c-.197,0-.391.037-.573.11s-.347.18-.485.314c-.139.134-.249.294-.324.469s-.113.363-.112.553v12.379c-.001.19.037.377.112.553.075.175.185.334.324.469.138.134.303.241.485.313.182.073.376.111.573.111h12.851c.398,0,.779-.153,1.061-.424.281-.271.439-.638.439-1.022v-12.379c0-.384-.158-.752-.439-1.023-.282-.271-.663-.423-1.061-.423v0Z" fill="#e6e6e6"/><path d="M489.305,100.132h-12.851c-.397.001-.777.154-1.057.425s-.438.638-.438,1.02v12.386c.001.382.158.748.438,1.018.281.27.661.422,1.057.422h12.851c.397,0,.778-.151,1.059-.421s.44-.637.441-1.019v-12.386c-.001-.383-.159-.75-.44-1.021s-.662-.423-1.06-.424v0Z" fill="#e6e6e6"/><path d="M489.305,121.237h-12.851c-.397.001-.777.154-1.057.425s-.438.638-.438,1.021v12.385c.001.382.158.748.438,1.018.281.27.661.422,1.057.422h12.851c.397,0,.778-.151,1.059-.421s.44-.637.441-1.019v-12.385c-.001-.383-.159-.751-.44-1.021-.281-.271-.662-.424-1.06-.425v0Z" fill="#e6e6e6"/><path d="M489.305,142.342h-12.851c-.397.001-.777.154-1.057.425s-.438.638-.438,1.021v12.38c0,.189.038.377.113.552.075.176.185.335.324.469.139.135.303.241.485.314s.376.11.573.11h12.851c.398,0,.779-.152,1.061-.423.281-.271.439-.639.439-1.022v-12.38c-.001-.383-.159-.75-.44-1.021s-.662-.424-1.06-.425v0Z" fill="#6c63ff"/><path d="M489.305,163.447h-12.851c-.397.002-.777.155-1.057.426s-.438.638-.438,1.02v12.38c0,.189.038.377.113.552.075.176.185.335.324.469.139.135.303.241.485.314s.376.111.573.111h12.851c.398,0,.779-.153,1.061-.424.281-.271.439-.639.439-1.022v-12.38c-.001-.383-.159-.75-.44-1.021s-.662-.424-1.06-.425v0Z" fill="#e6e6e6"/><path d="M489.305,184.553h-12.851c-.197,0-.391.037-.573.11s-.346.18-.485.314-.249.294-.324.469-.113.363-.113.553v12.379c0,.19.038.377.113.553.075.175.185.334.324.469.139.134.303.241.485.313.182.073.376.111.573.111h12.851c.398,0,.779-.153,1.061-.424.281-.271.439-.638.439-1.022v-12.379c0-.384-.158-.752-.439-1.023-.282-.271-.663-.423-1.061-.423v0Z" fill="#e6e6e6"/><path d="M193.945,367.076h-.358l.306-.039.052.039Z" fill="#2f2e41"/><path d="M265.183,191.927l-.127.645-1.425,7.252-9.85,50.163-.583,2.953-1.223,6.246-1.674,8.52-3.71,18.88-1.062,5.412-.398,2.029-.139.712-1.102,5.601-.334,1.69-2.69,19.203-2.348,16.735l7.859,7.574-4.685,4.516-3.076,16.979.006.039h-125.527c-5.078-3.17-10.083-6.439-15.0144-9.805l1.0329-7.452c0,0,3.5545-13.309,2.0595-14.899-1.4882-1.591-4.7544-4.432-4.7544-4.432l4.1144-9.255.571-1.284-.958-19.148-.023-.461-.317-6.313-.0405-.812-.0634-1.217-1.2176-24.292-.0231-.401-.3693-7.363-.3462-7.002-.1501-2.953-1.483-29.547-1.004-20.065-.8772-17.469l3.5258-1.151l37.7106-12.352l15.621-19.57l32.511.234l15.915.117l26.556,23.735l6.042,2.781.046.022l4.333,1.997l10.988,5.055l11.616,5.35l5.961,2.742.126.061Z" fill="#cacaca"/><g id="eZHMqyjGEF557" transform="translate(5.847435-.052521)"><path d="M155.29,310.073c-2.382.889-4.938,1.264-7.487,1.099-2.55-.165-5.03-.867-7.267-2.057-2.238-1.189-4.177-2.837-5.682-4.826-1.505-1.99-2.539-4.274-3.029-6.69l-61.4903-8.408l21.3757-23.303l55.1146,11.557c4.267-.525,8.586.477,12.137,2.816c3.552,2.339,6.09,5.852,7.133,9.874c1.044,4.022.52,8.273-1.471,11.948-1.992,3.674-5.313,6.517-9.334,7.99v0Z" fill="#ffb6b6"/><path d="M127.874,267.706c-1.139-1.392-2.752-2.351-4.553-2.709l-25.2289-5.055-2.591-.517c-1.5057-.303-2.9281-.909-4.1741-1.778s-2.2875-1.982-3.0564-3.266c-.7975-1.348-1.28-2.848-1.4138-4.394-.1202-1.406.0544-2.82.5136-4.16l8.7424-25.387l5.6722-16.473c.688-1.986,1.093-4.054,1.206-6.145.316-5.788-1.542-11.492-5.2337-16.067-3.2457-4.021-7.7475-6.929-12.8403-8.295s-10.5064-1.118-15.441.71c-.1443.05-.2943.105-.4386.161-3.5389,1.362-6.7007,3.498-9.2355,6.24s-4.3731,6.015-5.3697,9.56l-6.1629,21.605-12.7125,44.541c-1.2726,4.463-1.5297,9.138-.7537,13.705s2.5668,8.919,5.2497,12.757c2.6829,3.839,6.1947,7.073,10.295,9.482s8.6922,3.936,13.4615,4.476l36.3367,4.104l16.816,1.902c1.944.225,3.905-.264,5.492-1.37c1.587-1.105,2.684-2.747,3.071-4.597.027-.101.049-.203.064-.306l.404-2.403l3.421-20.232.035-.205c.178-1.033.13-2.09-.141-3.103-.271-1.014-.76-1.961-1.434-2.781Z" fill="#cacaca"/></g><g id="eZHMqyjGEF560"><path d="M194.457,310.721c2.489.557,5.074.581,7.573.071c2.5-.51,4.853-1.542,6.894-3.024c2.04-1.481,3.719-3.376,4.918-5.55c1.199-2.175,1.889-4.576,2.02-7.035l59.646-16.681-24.572-20.165-52.873,18.932c-4.302.06-8.43,1.639-11.604,4.438-3.174,2.798-5.173,6.621-5.617,10.744-.445,4.124.696,8.261,3.205,11.629c2.51,3.367,6.213,5.73,10.41,6.641v0Z" fill="#ffb6b6"/><path d="M305.121,241.189l-28.368-62.921c-2.32-5.165-6.464-9.372-11.697-11.873-1.617-.768-3.316-1.364-5.066-1.78-.271-.067-.542-.128-.814-.178-3.711-.78-7.561-.712-11.241.2-3.363.833-6.506,2.34-9.225,4.422-2.718,2.082-4.95,4.694-6.551,7.663-.018.025-.033.051-.046.078-1.789,3.334-2.739,7.026-2.777,10.778-.037,3.753.841,7.462,2.563,10.828l.352.678l20.047,38.802c.684,1.327,1.07,2.778,1.132,4.259.061,1.48-.203,2.957-.775,4.332s-1.439,2.619-2.545,3.648c-1.106,1.03-2.425,1.822-3.871,2.326l-1.408.489-25.321,8.815c-1.9.653-3.463,1.992-4.36,3.733-.896,1.742-1.057,3.751-.447,5.604l.063.195l7.098,21.89c.035.1.069.2.11.3.062.189.139.373.231.55.754,1.631,2.087,2.948,3.76,3.716c1.672.768,3.574.935,5.363.472l13.664-3.476l2.787-.712l35.287-8.981c4.643-1.183,8.966-3.318,12.674-6.26c3.707-2.942,6.71-6.622,8.805-10.787c2.094-4.165,3.23-8.717,3.33-13.344.099-4.627-.84-9.221-2.754-13.466v0Z" fill="#cacaca"/></g><path d="M25.9085,294.027c8.1771,9.613,16.9959,18.701,26.4002,27.207h260.8103c2.513.003,4.922.967,6.698,2.68s2.775,4.035,2.778,6.457l.375,63.694c16.044-7.105,31.07-16.176,44.704-26.989c3.785-2.998,7.453-6.125,11.004-9.382c2.326-2.125,4.596-4.301,6.809-6.529c16.599-16.665,30.039-36.003,39.713-57.138h-399.2915Z" fill="#3f3d56"/><path d="M385.487,351.165c-2.21,2.23-4.479,4.406-6.809,6.529h-55.518v-6.529h62.327Z" fill="#fff"/><path d="M264.664,142.342c-.274-.488-.68-.895-1.175-1.179-.494-.284-1.059-.434-1.635-.434h-189.1811c-.8482.003-1.6609.329-2.2601.907-.5992.579-.9361,1.362-.9368,2.18v109.124h195.58v-109.124c.004-.516-.132-1.023-.392-1.474v0Z" fill="#3f3d56"/><path d="M69.3047,249.986v13.466c0,.558.1141,1.111.3357,1.627.2217.516.5466.984.9562,1.379s.8958.708,1.431.921c.5352.214,1.1087.324,1.688.324h72.1874v26.576h-.959c-.075,0-.15.014-.219.042-.07.028-.133.068-.186.119-.053.052-.096.113-.124.18-.029.067-.044.138-.044.211v1.848c0,.073.015.145.044.212.028.067.071.128.124.179s.116.092.186.12c.069.027.144.042.219.042h44.813c.075,0,.15-.015.219-.042.07-.028.133-.069.186-.12s.096-.112.124-.179c.029-.067.044-.139.044-.212v-1.848c0-.073-.015-.144-.044-.211-.028-.067-.071-.128-.124-.18-.053-.051-.116-.091-.186-.119-.069-.028-.144-.042-.219-.042h-.959v-26.576h72.187c.58,0,1.153-.11,1.688-.324.536-.213,1.022-.526,1.431-.921.41-.395.735-.863.957-1.379.221-.516.335-1.069.335-1.627v-13.466h-196.0913Z" fill="#3f3d56"/><path d="M164.981,211.336c9.977,0,18.066-7.795,18.066-17.41c0-9.616-8.089-17.411-18.066-17.411s-18.065,7.795-18.065,17.411c0,9.615,8.088,17.41,18.065,17.41Z" fill="#6c63ff"/><g id="eZHMqyjGEF568" transform="matrix(.991979-.126404 0.126404 0.991979-9.903697 21.394521)"><g><path d="M163.199,136.283c21.774,0,39.425-17.011,39.425-37.996c0-20.9847-17.651-37.9961-39.425-37.9961s-39.425,17.0114-39.425,37.9961c0,20.985,17.651,37.996,39.425,37.996Z" fill="#ffb6b6"/><path d="M197.725,70.4289c0,0,10.311-18.998-12.374-20.7251c0,0-19.34-16.9077-39.053-3.091c0,0-10.752,0-16.632,11.7264c0,0-8.457-3.091-10.315,5.1813c0,0-6.188,17.271,0,32.8148c6.188,15.5437,8.243,17.2707,8.243,17.2707s-10.168-32.5882,14.582-34.3154c24.751-1.7271,52.447-16.6336,54.509,2.3644c2.063,18.998,5.167,23.679,5.167,23.679s19.591-27.1331-4.127-34.9051Z" fill="#2f2e41"/></g><g transform="translate(0 0.000001)"><path d="M211.01,96.2108h-2.886c0-21.0218-21.587-34.7972-43.365-34.8083-3.168-.009-6.328.2872-9.435.8842-3.497.6729-7.126,1.4793-10.693,2.5304-14.062,4.1543-27.104,12.1849-27.104,31.3937-.003,3.7305.49,7.4462,1.466,11.0562l-2.793.701c-1.036-3.84-1.56-7.79-1.558-11.7572c0-16.7841,7.15-28.3127,19.499-35.1865c6.491-3.6149,14.414-5.9451,23.491-7.0796c3.778-.4843,7.596-.5961,11.397-.3337c25.044,1.7351,41.981,20.2433,41.981,42.5998Z" fill="#6c63ff"/><path d="M215.817,97.7513L214.68,89.654c-.281-2.0449-1.303-3.9282-2.885-5.3166-1.017-.9052-2.233-1.5758-3.558-1.9612-1.324-.3853-2.722-.4754-4.088-.2634l-1.807.2392c-.494.0627-.97.2193-1.401.4609-.431.2415-.808.5631-1.109.9461-.303.3817-.525.8176-.653,1.2824-.128.4649-.159.9495-.091,1.426l2.625,18.6526c.109.76.462,1.469,1.011,2.024.549.556,1.265.932,2.048,1.074.232.045.467.067.704.066.17,0,.339-.011.508-.033l2.019-.261c1.232-.158,2.417-.556,3.482-1.171c1.066-.615,1.99-1.434,2.716-2.405.156-.212.306-.428.444-.651c1.082-1.82,1.494-3.9378,1.172-6.0117Z" fill="#6c63ff"/><path d="M201.177,82.6912c-.53.2481-.991.6141-1.345,1.0678-.303.3817-.525.8176-.653,1.2824-.128.4649-.159.9495-.091,1.426l2.625,18.6526c.109.76.462,1.469,1.011,2.024.549.556,1.265.932,2.048,1.074l-3.595-25.5268Z" fill="#fff"/><path d="M215.817,97.7513L214.68,89.654c-.281-2.0449-1.303-3.9282-2.885-5.3166l2.614,18.5586c.039.297.118.589.236.867c1.082-1.82,1.495-3.9378,1.172-6.0117v0Z" fill="#3f3d56"/><path d="M206.832,103.586c.79-.104,1.186-1.914.887-4.045-.3-2.1304-1.183-3.7739-1.973-3.6706-.789.1032-1.186,1.9139-.886,4.0444.299,2.1302,1.183,3.7742,1.972,3.6712Z" fill="#3f3d56"/><path d="M205.101,93.5751c.789-.1032,1.186-1.914.886-4.0445-.299-2.1305-1.183-3.7739-1.972-3.6707-.79.1032-1.187,1.914-.887,4.0445s1.183,3.7739,1.973,3.6707Z" fill="#3f3d56"/><path d="M216.065,97.4681c.789-.1033,1.186-1.914.886-4.0445-.299-2.1305-1.183-3.774-1.972-3.6707-.79.1032-1.187,1.914-.887,4.0445s1.183,3.7739,1.973,3.6707Z" fill="#3f3d56"/><path d="M164.759,61.4024c-3.168-.0089-6.328.2873-9.435.8843-3.497.6729-7.126,1.4793-10.693,2.5304-5.568-.2614-9.665-1.6517-10.49-3.7929c6.491-3.6148,14.414-5.945,23.491-7.0795c3.778-.4843,7.596-.5961,11.397-.3337.403.2273.75.5341,1.021.9003.27.3661.457.7833.549,1.2241.271,1.9354-2.02,3.9931-5.84,5.667Z" fill="#3f3d56"/><path d="M127.92,115.509l-4.443-17.8022c-.159-.6422-.511-1.2251-1.012-1.6753-.501-.4501-1.129-.7476-1.804-.8551-.191-.0286-.384-.0435-.577-.0445-.273.001-.544.0327-.808.0946l-1.72.4004c-2.214.516-4.125,1.8575-5.314,3.7301-1.189,1.873-1.559,4.123-1.028,6.258l1.991,7.986c.455,1.88,1.537,3.564,3.082,4.794.25.195.512.375.784.539.968.585,2.047.976,3.173,1.152c1.127.176,2.279.132,3.388-.128l1.714-.401c.453-.102.88-.293,1.252-.561.555-.39.976-.929,1.212-1.55.235-.621.273-1.295.11-1.937Z" fill="#6c63ff"/><path d="M118.605,112.196c.775-.179.979-2.019.458-4.11-.522-2.09-1.574-3.639-2.348-3.459-.775.179-.98,2.019-.458,4.11.522,2.09,1.573,3.639,2.348,3.459Z" fill="#3f3d56"/><path d="M112.834,113.865c.775-.18.98-2.02.458-4.11-.522-2.091-1.573-3.64-2.348-3.46-.774.18-.979,2.02-.457,4.11.522,2.091,1.573,3.639,2.347,3.46Z" fill="#3f3d56"/><path d="M128.203,115.442l-4.444-17.8019c-.173-.6949-.555-1.3252-1.098-1.8119s-1.223-.8082-1.954-.9243l6.065,24.3141c.599-.423,1.054-1.007,1.309-1.679s.297-1.402.122-2.097v0Z" fill="#fff"/><path d="M112.218,102.089c-.122-.495-.352-.959-.675-1.362-.624,1.559-.739,3.264-.329,4.888l1.991,7.986c.455,1.88,1.537,3.564,3.082,4.794l-4.069-16.306Z" fill="#3f3d56"/></g></g></g><clipPath id="eZHMqyjGEF586"><rect width="490.805" height="412" rx="0" ry="0" fill="#fff"/></clipPath></g>
<script><![CDATA[
!function(t,n){"object"==typeof exports&&"undefined"!=typeof module?module.exports=n():"function"==typeof __SVGATOR_DEFINE__&&__SVGATOR_DEFINE__.amd?__SVGATOR_DEFINE__(n):((t="undefined"!=typeof globalThis?globalThis:t||self).__SVGATOR_PLAYER__=t.__SVGATOR_PLAYER__||{},t.__SVGATOR_PLAYER__["5c7f360c"]=n())}(this,(function(){"use strict";function t(t,n){var e=Object.keys(t);if(Object.getOwnPropertySymbols){var r=Object.getOwnPropertySymbols(t);n&&(r=r.filter((function(n){return Object.getOwnPropertyDescriptor(t,n).enumerable}))),e.push.apply(e,r)}return e}function n(n){for(var e=1;e<arguments.length;e++){var r=null!=arguments[e]?arguments[e]:{};e%2?t(Object(r),!0).forEach((function(t){o(n,t,r[t])})):Object.getOwnPropertyDescriptors?Object.defineProperties(n,Object.getOwnPropertyDescriptors(r)):t(Object(r)).forEach((function(t){Object.defineProperty(n,t,Object.getOwnPropertyDescriptor(r,t))}))}return n}function e(t){return(e="function"==typeof Symbol&&"symbol"==typeof Symbol.iterator?function(t){return typeof t}:function(t){return t&&"function"==typeof Symbol&&t.constructor===Symbol&&t!==Symbol.prototype?"symbol":typeof t})(t)}function r(t,n){if(!(t instanceof n))throw new TypeError("Cannot call a class as a function")}function i(t,n){for(var e=0;e<n.length;e++){var r=n[e];r.enumerable=r.enumerable||!1,r.configurable=!0,"value"in r&&(r.writable=!0),Object.defineProperty(t,r.key,r)}}function u(t,n,e){return n&&i(t.prototype,n),e&&i(t,e),t}function o(t,n,e){return n in t?Object.defineProperty(t,n,{value:e,enumerable:!0,configurable:!0,writable:!0}):t[n]=e,t}function a(t){return(a=Object.setPrototypeOf?Object.getPrototypeOf:function(t){return t.__proto__||Object.getPrototypeOf(t)})(t)}function l(t,n){return(l=Object.setPrototypeOf||function(t,n){return t.__proto__=n,t})(t,n)}function s(){if("undefined"==typeof Reflect||!Reflect.construct)return!1;if(Reflect.construct.sham)return!1;if("function"==typeof Proxy)return!0;try{return Boolean.prototype.valueOf.call(Reflect.construct(Boolean,[],(function(){}))),!0}catch(t){return!1}}function f(t,n,e){return(f=s()?Reflect.construct:function(t,n,e){var r=[null];r.push.apply(r,n);var i=new(Function.bind.apply(t,r));return e&&l(i,e.prototype),i}).apply(null,arguments)}function c(t,n){if(n&&("object"==typeof n||"function"==typeof n))return n;if(void 0!==n)throw new TypeError("Derived constructors may only return object or undefined");return function(t){if(void 0===t)throw new ReferenceError("this hasn't been initialised - super() hasn't been called");return t}(t)}function h(t,n,e){return(h="undefined"!=typeof Reflect&&Reflect.get?Reflect.get:function(t,n,e){var r=function(t,n){for(;!Object.prototype.hasOwnProperty.call(t,n)&&null!==(t=a(t)););return t}(t,n);if(r){var i=Object.getOwnPropertyDescriptor(r,n);return i.get?i.get.call(e):i.value}})(t,n,e||t)}function v(t){return function(t){if(Array.isArray(t))return y(t)}(t)||function(t){if("undefined"!=typeof Symbol&&null!=t[Symbol.iterator]||null!=t["@@iterator"])return Array.from(t)}(t)||function(t,n){if(!t)return;if("string"==typeof t)return y(t,n);var e=Object.prototype.toString.call(t).slice(8,-1);"Object"===e&&t.constructor&&(e=t.constructor.name);if("Map"===e||"Set"===e)return Array.from(t);if("Arguments"===e||/^(?:Ui|I)nt(?:8|16|32)(?:Clamped)?Array$/.test(e))return y(t,n)}(t)||function(){throw new TypeError("Invalid attempt to spread non-iterable instance.\nIn order to be iterable, non-array objects must have a [Symbol.iterator]() method.")}()}function y(t,n){(null==n||n>t.length)&&(n=t.length);for(var e=0,r=new Array(n);e<n;e++)r[e]=t[e];return r}Number.isInteger||(Number.isInteger=function(t){return"number"==typeof t&&isFinite(t)&&Math.floor(t)===t}),Number.EPSILON||(Number.EPSILON=2220446049250313e-31);var g=p(Math.pow(10,-6));function p(t){var n=arguments.length>1&&void 0!==arguments[1]?arguments[1]:6;if(Number.isInteger(t))return t;var e=Math.pow(10,n);return Math.round((+t+Number.EPSILON)*e)/e}function d(t,n){var e=arguments.length>2&&void 0!==arguments[2]?arguments[2]:g;return Math.abs(t-n)<e}var m=Math.PI/180;function b(t){return t}function w(t,n,e){var r=1-e;return 3*e*r*(t*r+n*e)+e*e*e}function A(){var t=arguments.length>0&&void 0!==arguments[0]?arguments[0]:0,n=arguments.length>1&&void 0!==arguments[1]?arguments[1]:0,e=arguments.length>2&&void 0!==arguments[2]?arguments[2]:1,r=arguments.length>3&&void 0!==arguments[3]?arguments[3]:1;return t<0||t>1||e<0||e>1?null:d(t,n)&&d(e,r)?b:function(i){if(i<=0)return t>0?i*n/t:0===n&&e>0?i*r/e:0;if(i>=1)return e<1?1+(i-1)*(r-1)/(e-1):1===e&&t<1?1+(i-1)*(n-1)/(t-1):1;for(var u,o=0,a=1;o<a;){var l=w(t,e,u=(o+a)/2);if(d(i,l))break;l<i?o=u:a=u}return w(n,r,u)}}function _(){return 1}function x(t){return 1===t?1:0}function k(){var t=arguments.length>0&&void 0!==arguments[0]?arguments[0]:1,n=arguments.length>1&&void 0!==arguments[1]?arguments[1]:0;if(1===t){if(0===n)return x;if(1===n)return _}var e=1/t;return function(t){return t>=1?1:(t+=n*e)-t%e}}var S=Math.sin,O=Math.cos,j=Math.acos,E=Math.asin,M=Math.tan,P=Math.atan2,I=Math.PI/180,R=180/Math.PI,F=Math.sqrt,N=function(){function t(){var n=arguments.length>0&&void 0!==arguments[0]?arguments[0]:1,e=arguments.length>1&&void 0!==arguments[1]?arguments[1]:0,i=arguments.length>2&&void 0!==arguments[2]?arguments[2]:0,u=arguments.length>3&&void 0!==arguments[3]?arguments[3]:1,o=arguments.length>4&&void 0!==arguments[4]?arguments[4]:0,a=arguments.length>5&&void 0!==arguments[5]?arguments[5]:0;r(this,t),this.m=[n,e,i,u,o,a],this.i=null,this.w=null,this.s=null}return u(t,[{key:"determinant",get:function(){var t=this.m;return t[0]*t[3]-t[1]*t[2]}},{key:"isIdentity",get:function(){if(null===this.i){var t=this.m;this.i=1===t[0]&&0===t[1]&&0===t[2]&&1===t[3]&&0===t[4]&&0===t[5]}return this.i}},{key:"point",value:function(t,n){var e=this.m;return{x:e[0]*t+e[2]*n+e[4],y:e[1]*t+e[3]*n+e[5]}}},{key:"translateSelf",value:function(){var t=arguments.length>0&&void 0!==arguments[0]?arguments[0]:0,n=arguments.length>1&&void 0!==arguments[1]?arguments[1]:0;if(!t&&!n)return this;var e=this.m;return e[4]+=e[0]*t+e[2]*n,e[5]+=e[1]*t+e[3]*n,this.w=this.s=this.i=null,this}},{key:"rotateSelf",value:function(){var t=arguments.length>0&&void 0!==arguments[0]?arguments[0]:0;if(t%=360){var n=S(t*=I),e=O(t),r=this.m,i=r[0],u=r[1];r[0]=i*e+r[2]*n,r[1]=u*e+r[3]*n,r[2]=r[2]*e-i*n,r[3]=r[3]*e-u*n,this.w=this.s=this.i=null}return this}},{key:"scaleSelf",value:function(){var t=arguments.length>0&&void 0!==arguments[0]?arguments[0]:1,n=arguments.length>1&&void 0!==arguments[1]?arguments[1]:1;if(1!==t||1!==n){var e=this.m;e[0]*=t,e[1]*=t,e[2]*=n,e[3]*=n,this.w=this.s=this.i=null}return this}},{key:"skewSelf",value:function(t,n){if(n%=360,(t%=360)||n){var e=this.m,r=e[0],i=e[1],u=e[2],o=e[3];t&&(t=M(t*I),e[2]+=r*t,e[3]+=i*t),n&&(n=M(n*I),e[0]+=u*n,e[1]+=o*n),this.w=this.s=this.i=null}return this}},{key:"resetSelf",value:function(){var t=arguments.length>0&&void 0!==arguments[0]?arguments[0]:1,n=arguments.length>1&&void 0!==arguments[1]?arguments[1]:0,e=arguments.length>2&&void 0!==arguments[2]?arguments[2]:0,r=arguments.length>3&&void 0!==arguments[3]?arguments[3]:1,i=arguments.length>4&&void 0!==arguments[4]?arguments[4]:0,u=arguments.length>5&&void 0!==arguments[5]?arguments[5]:0,o=this.m;return o[0]=t,o[1]=n,o[2]=e,o[3]=r,o[4]=i,o[5]=u,this.w=this.s=this.i=null,this}},{key:"recomposeSelf",value:function(){var t=arguments.length>0&&void 0!==arguments[0]?arguments[0]:null,n=arguments.length>1&&void 0!==arguments[1]?arguments[1]:null,e=arguments.length>2&&void 0!==arguments[2]?arguments[2]:null,r=arguments.length>3&&void 0!==arguments[3]?arguments[3]:null,i=arguments.length>4&&void 0!==arguments[4]?arguments[4]:null;return this.isIdentity||this.resetSelf(),t&&(t.x||t.y)&&this.translateSelf(t.x,t.y),n&&this.rotateSelf(n),e&&(e.x&&this.skewSelf(e.x,0),e.y&&this.skewSelf(0,e.y)),!r||1===r.x&&1===r.y||this.scaleSelf(r.x,r.y),i&&(i.x||i.y)&&this.translateSelf(i.x,i.y),this}},{key:"decompose",value:function(){var t=arguments.length>0&&void 0!==arguments[0]?arguments[0]:0,n=arguments.length>1&&void 0!==arguments[1]?arguments[1]:0,e=this.m,r=e[0]*e[0]+e[1]*e[1],i=[[e[0],e[1]],[e[2],e[3]]],u=F(r);if(0===u)return{origin:{x:p(e[4]),y:p(e[5])},translate:{x:p(t),y:p(n)},scale:{x:0,y:0},skew:{x:0,y:0},rotate:0};i[0][0]/=u,i[0][1]/=u;var o=e[0]*e[3]-e[1]*e[2]<0;o&&(u=-u);var a=i[0][0]*i[1][0]+i[0][1]*i[1][1];i[1][0]-=i[0][0]*a,i[1][1]-=i[0][1]*a;var l=F(i[1][0]*i[1][0]+i[1][1]*i[1][1]);if(0===l)return{origin:{x:p(e[4]),y:p(e[5])},translate:{x:p(t),y:p(n)},scale:{x:p(u),y:0},skew:{x:0,y:0},rotate:0};i[1][0]/=l,i[1][1]/=l,a/=l;var s=0;return i[1][1]<0?(s=j(i[1][1])*R,i[0][1]<0&&(s=360-s)):s=E(i[0][1])*R,o&&(s=-s),a=P(a,F(i[0][0]*i[0][0]+i[0][1]*i[0][1]))*R,o&&(a=-a),{origin:{x:p(e[4]),y:p(e[5])},translate:{x:p(t),y:p(n)},scale:{x:p(u),y:p(l)},skew:{x:p(a),y:0},rotate:p(s)}}},{key:"clone",value:function(){var t=this.m;return new this.constructor(t[0],t[1],t[2],t[3],t[4],t[5])}},{key:"toString",value:function(){var t=arguments.length>0&&void 0!==arguments[0]?arguments[0]:" ";if(null===this.s){var n=this.m.map((function(t){return p(t)}));1===n[0]&&0===n[1]&&0===n[2]&&1===n[3]?this.s="translate("+n[4]+t+n[5]+")":this.s="matrix("+n.join(t)+")"}return this.s}}],[{key:"create",value:function(t){return t?Array.isArray(t)?f(this,v(t)):t instanceof this?t.clone():(new this).recomposeSelf(t.origin,t.rotate,t.skew,t.scale,t.translate):new this}}]),t}();function T(t,n,e){return t>=.5?e:n}function q(t,n,e){return 0===t||n===e?n:t*(e-n)+n}function B(t,n,e){var r=q(t,n,e);return r<=0?0:r}function D(t,n,e){var r=q(t,n,e);return r<=0?0:r>=1?1:r}function L(t,n,e){return 0===t?n:1===t?e:{x:q(t,n.x,e.x),y:q(t,n.y,e.y)}}function C(t,n,e){var r=function(t,n,e){return Math.round(q(t,n,e))}(t,n,e);return r<=0?0:r>=255?255:r}function V(t,n,e){return 0===t?n:1===t?e:{r:C(t,n.r,e.r),g:C(t,n.g,e.g),b:C(t,n.b,e.b),a:q(t,null==n.a?1:n.a,null==e.a?1:e.a)}}function G(t,n){for(var e=[],r=0;r<t;r++)e.push(n);return e}function z(t,n){if(--n<=0)return t;var e=(t=Object.assign([],t)).length;do{for(var r=0;r<e;r++)t.push(t[r])}while(--n>0);return t}var Y,$=function(){function t(n){r(this,t),this.list=n,this.length=n.length}return u(t,[{key:"setAttribute",value:function(t,n){for(var e=this.list,r=0;r<this.length;r++)e[r].setAttribute(t,n)}},{key:"removeAttribute",value:function(t){for(var n=this.list,e=0;e<this.length;e++)n[e].removeAttribute(t)}},{key:"style",value:function(t,n){for(var e=this.list,r=0;r<this.length;r++)e[r].style[t]=n}}]),t}(),U=/-./g,Q=function(t,n){return n.toUpperCase()};function H(t){return"function"==typeof t?t:T}function J(t){return t?"function"==typeof t?t:Array.isArray(t)?function(t){var n=arguments.length>1&&void 0!==arguments[1]?arguments[1]:b;if(!Array.isArray(t))return n;switch(t.length){case 1:return k(t[0])||n;case 2:return k(t[0],t[1])||n;case 4:return A(t[0],t[1],t[2],t[3])||n}return n}(t,null):function(t,n){var e=arguments.length>2&&void 0!==arguments[2]?arguments[2]:b;switch(t){case"linear":return b;case"steps":return k(n.steps||1,n.jump||0)||e;case"bezier":case"cubic-bezier":return A(n.x1||0,n.y1||0,n.x2||0,n.y2||0)||e}return e}(t.type,t.value,null):null}function Z(t,n,e){var r=arguments.length>3&&void 0!==arguments[3]&&arguments[3],i=n.length-1;if(t<=n[0].t)return r?[0,0,n[0].v]:n[0].v;if(t>=n[i].t)return r?[i,1,n[i].v]:n[i].v;var u,o=n[0],a=null;for(u=1;u<=i;u++){if(!(t>n[u].t)){a=n[u];break}o=n[u]}return null==a?r?[i,1,n[i].v]:n[i].v:o.t===a.t?r?[u,1,a.v]:a.v:(t=(t-o.t)/(a.t-o.t),o.e&&(t=o.e(t)),r?[u,t,e(t,o.v,a.v)]:e(t,o.v,a.v))}function K(t,n){var e=arguments.length>2&&void 0!==arguments[2]?arguments[2]:null;return t&&t.length?"function"!=typeof n?null:("function"!=typeof e&&(e=null),function(r){var i=Z(r,t,n);return null!=i&&e&&(i=e(i)),i}):null}function W(t,n){return t.t-n.t}function X(t,n,r,i,u){var o,a="@"===r[0],l="#"===r[0],s=Y[r],f=T;switch(a?(o=r.substr(1),r=o.replace(U,Q)):l&&(r=r.substr(1)),e(s)){case"function":if(f=s(i,u,Z,J,r,a,n,t),l)return f;break;case"string":f=K(i,H(s));break;case"object":if((f=K(i,H(s.i),s.f))&&"function"==typeof s.u)return s.u(n,f,r,a,t)}return f?function(t,n,e){if(arguments.length>3&&void 0!==arguments[3]&&arguments[3])return t instanceof $?function(r){return t.style(n,e(r))}:function(r){return t.style[n]=e(r)};if(Array.isArray(n)){var r=n.length;return function(i){var u=e(i);if(null==u)for(var o=0;o<r;o++)t[o].removeAttribute(n);else for(var a=0;a<r;a++)t[a].setAttribute(n,u)}}return function(r){var i=e(r);null==i?t.removeAttribute(n):t.setAttribute(n,i)}}(n,r,f,a):null}function tt(t,n,r,i){if(!i||"object"!==e(i))return null;var u=null,o=null;return Array.isArray(i)?o=function(t){if(!t||!t.length)return null;for(var n=0;n<t.length;n++)t[n].e&&(t[n].e=J(t[n].e));return t.sort(W)}(i):(o=i.keys,u=i.data||null),o?X(t,n,r,o,u):null}function nt(t,n,e){if(!e)return null;var r=[];for(var i in e)if(e.hasOwnProperty(i)){var u=tt(t,n,i,e[i]);u&&r.push(u)}return r.length?r:null}function et(t,n){if(!n.settings.duration||n.settings.duration<0)return null;var e,r,i,u,o,a=function(t,n){if(!n)return null;var e=[];if(Array.isArray(n))for(var r=n.length,i=0;i<r;i++){var u=n[i];if(2===u.length){var o=null;if("string"==typeof u[0])o=t.getElementById(u[0]);else if(Array.isArray(u[0])){o=[];for(var a=0;a<u[0].length;a++)if("string"==typeof u[0][a]){var l=t.getElementById(u[0][a]);l&&o.push(l)}o=o.length?1===o.length?o[0]:new $(o):null}if(o){var s=nt(t,o,u[1]);s&&(e=e.concat(s))}}}else for(var f in n)if(n.hasOwnProperty(f)){var c=t.getElementById(f);if(c){var h=nt(t,c,n[f]);h&&(e=e.concat(h))}}return e.length?e:null}(t,n.elements);return a?(e=a,r=n.settings,i=r.duration,u=e.length,o=null,function(t,n){var a=r.iterations||1/0,l=(r.alternate&&a%2==0)^r.direction>0?i:0,s=t%i,f=1+(t-s)/i;n*=r.direction,r.alternate&&f%2==0&&(n=-n);var c=!1;if(f>a)s=l,c=!0,-1===r.fill&&(s=r.direction>0?0:i);else if(n<0&&(s=i-s),s===o)return!1;o=s;for(var h=0;h<u;h++)e[h](s);return c}):null}function rt(t,n){if(Y=n,!t||!t.root||!Array.isArray(t.animations))return null;var e=function(t){for(var n=document.getElementsByTagName("svg"),e=0;e<n.length;e++)if(n[e].id===t.root&&!n[e].svgatorAnimation)return n[e].svgatorAnimation=!0,n[e];return null}(t);if(!e)return null;var r=t.animations.map((function(t){return et(e,t)})).filter((function(t){return!!t}));return r.length?{svg:e,animations:r,animationSettings:t.animationSettings,options:t.options||void 0}:null}function it(t){return+("0x"+(t.replace(/[^0-9a-fA-F]+/g,"")||27))}function ut(t,n,e){return!t||!e||n>t.length?t:t.substring(0,n)+ut(t.substring(n+1),e,e)}function ot(t){var n=arguments.length>1&&void 0!==arguments[1]?arguments[1]:27;return!t||t%n?t%n:ot(t/n,n)}function at(t,n,e){if(t&&t.length){var r=it(e),i=it(n),u=ot(r)+5,o=ut(t,ot(r,5),u);return o=o.replace(/\x7c$/g,"==").replace(/\x2f$/g,"="),o=function(t,n,e){var r=+("0x"+t.substring(0,4));t=t.substring(4);for(var i=n%r+e%27,u=[],o=0;o<t.length;o+=2)if("|"!==t[o]){var a=+("0x"+t[o]+t[o+1])-i;u.push(a)}else{var l=+("0x"+t.substring(o+1,o+1+4))-i;o+=3,u.push(l)}return String.fromCharCode.apply(String,u)}(o=(o=atob(o)).replace(/[\x41-\x5A]/g,""),i,r),o=JSON.parse(o)}}var lt=[{key:"alternate",def:!1},{key:"fill",def:1},{key:"iterations",def:0},{key:"direction",def:1},{key:"speed",def:1},{key:"fps",def:100}],st=function(){function t(n,e){var i=this,u=arguments.length>2&&void 0!==arguments[2]?arguments[2]:null;r(this,t),this._id=0,this._running=!1,this._rollingBack=!1,this._animations=n,this._settings=e,(!u||u<"2022-05-02")&&delete this._settings.speed,lt.forEach((function(t){i._settings[t.key]=i._settings[t.key]||t.def})),this.duration=e.duration,this.offset=e.offset||0,this.rollbackStartOffset=0}return u(t,[{key:"alternate",get:function(){return this._settings.alternate}},{key:"fill",get:function(){return this._settings.fill}},{key:"iterations",get:function(){return this._settings.iterations}},{key:"direction",get:function(){return this._settings.direction}},{key:"speed",get:function(){return this._settings.speed}},{key:"fps",get:function(){return this._settings.fps}},{key:"maxFiniteDuration",get:function(){return this.iterations>0?this.iterations*this.duration:this.duration}},{key:"_apply",value:function(t){for(var n=arguments.length>1&&void 0!==arguments[1]?arguments[1]:{},e=this._animations,r=e.length,i=0,u=0;u<r;u++)n[u]?i++:(n[u]=e[u](t,1),n[u]&&i++);return i}},{key:"_rollback",value:function(t){var n=this,e=1/0,r=null;this.rollbackStartOffset=t,this._rollingBack=!0,this._running=!0;this._id=window.requestAnimationFrame((function i(u){if(n._rollingBack){null==r&&(r=u);var o=Math.round(t-(u-r)*n.speed);if(o>n.duration&&e!==1/0){var a=!!n.alternate&&o/n.duration%2>1,l=o%n.duration;o=(l+=a?n.duration:0)||n.duration}var s=(n.fps?1e3/n.fps:0)*n.speed,f=Math.max(0,o);f<=e-s&&(n.offset=f,e=f,n._apply(f));var c=n.iterations>0&&-1===n.fill&&o>=n.maxFiniteDuration;(o<=0||n.offset<o||c)&&n.stop(),n._id=window.requestAnimationFrame(i)}}))}},{key:"_start",value:function(){var t=this,n=arguments.length>0&&void 0!==arguments[0]?arguments[0]:0,e=-1/0,r=null,i={};this._running=!0;var u=function u(o){null==r&&(r=o);var a=Math.round((o-r)*t.speed+n),l=(t.fps?1e3/t.fps:0)*t.speed;if(a>=e+l&&!t._rollingBack&&(t.offset=a,e=a,t._apply(a,i)===t._animations.length))return void t.pause(!0);t._id=window.requestAnimationFrame(u)};this._id=window.requestAnimationFrame(u)}},{key:"_pause",value:function(){this._id&&window.cancelAnimationFrame(this._id),this._running=!1}},{key:"play",value:function(){if(!this._running)return this._rollingBack?this._rollback(this.offset):this._start(this.offset)}},{key:"stop",value:function(){this._pause(),this.offset=0,this.rollbackStartOffset=0,this._rollingBack=!1,this._apply(0)}},{key:"reachedToEnd",value:function(){return this.iterations>0&&this.offset>=this.iterations*this.duration}},{key:"restart",value:function(){var t=arguments.length>0&&void 0!==arguments[0]&&arguments[0];this.stop(t),this.play(t)}},{key:"pause",value:function(){this._pause()}},{key:"reverse",value:function(){this.direction=-this.direction}}],[{key:"build",value:function(t,n){delete t.animationSettings,t.options=at(t.options,t.root,"5c7f360c"),t.animations.map((function(n){n.settings=at(n.s,t.root,"5c7f360c"),delete n.s,t.animationSettings||(t.animationSettings=n.settings)}));var e=t.version;if(!(t=rt(t,n)))return null;var r=t.options||{},i=new this(t.animations,t.animationSettings,e);return{el:t.svg,options:r,player:i}}},{key:"push",value:function(t){return this.build(t)}},{key:"init",value:function(){var t=this,n=window.__SVGATOR_PLAYER__&&window.__SVGATOR_PLAYER__["5c7f360c"];Array.isArray(n)&&n.splice(0).forEach((function(n){return t.build(n)}))}}]),t}();function ft(t){return p(t)+""}function ct(t){var n=arguments.length>1&&void 0!==arguments[1]?arguments[1]:" ";return t&&t.length?t.map(ft).join(n):""}function ht(t){if(!t)return"transparent";if(null==t.a||t.a>=1){var n=function(t){return 1===(t=parseInt(t).toString(16)).length?"0"+t:t},e=function(t){return t.charAt(0)===t.charAt(1)},r=n(t.r),i=n(t.g),u=n(t.b);return e(r)&&e(i)&&e(u)&&(r=r.charAt(0),i=i.charAt(0),u=u.charAt(0)),"#"+r+i+u}return"rgba("+t.r+","+t.g+","+t.b+","+t.a+")"}function vt(t){return t?"url(#"+t+")":"none"}!function(){for(var t=0,n=["ms","moz","webkit","o"],e=0;e<n.length&&!window.requestAnimationFrame;++e)window.requestAnimationFrame=window[n[e]+"RequestAnimationFrame"],window.cancelAnimationFrame=window[n[e]+"CancelAnimationFrame"]||window[n[e]+"CancelRequestAnimationFrame"];window.requestAnimationFrame||(window.requestAnimationFrame=function(n){var e=Date.now(),r=Math.max(0,16-(e-t)),i=window.setTimeout((function(){n(e+r)}),r);return t=e+r,i},window.cancelAnimationFrame=window.clearTimeout)}();var yt={f:null,i:function(t,n,e){return 0===t?n:1===t?e:{x:B(t,n.x,e.x),y:B(t,n.y,e.y)}},u:function(t,n){return function(e){var r=n(e);t.setAttribute("rx",ft(r.x)),t.setAttribute("ry",ft(r.y))}}},gt={f:null,i:function(t,n,e){return 0===t?n:1===t?e:{width:B(t,n.width,e.width),height:B(t,n.height,e.height)}},u:function(t,n){return function(e){var r=n(e);t.setAttribute("width",ft(r.width)),t.setAttribute("height",ft(r.height))}}};Object.freeze({M:2,L:2,Z:0,H:1,V:1,C:6,Q:4,T:2,S:4,A:7});var pt={},dt=null;function mt(t){var n=function(){if(dt)return dt;if("object"!==("undefined"==typeof document?"undefined":e(document))||!document.createElementNS)return{};var t=document.createElementNS("http://www.w3.org/2000/svg","svg");return t&&t.style?(t.style.position="absolute",t.style.opacity="0.01",t.style.zIndex="-9999",t.style.left="-9999px",t.style.width="1px",t.style.height="1px",dt={svg:t}):{}}().svg;if(!n)return function(t){return null};var r=document.createElementNS(n.namespaceURI,"path");r.setAttributeNS(null,"d",t),r.setAttributeNS(null,"fill","none"),r.setAttributeNS(null,"stroke","none"),n.appendChild(r);var i=r.getTotalLength();return function(t){var n=r.getPointAtLength(i*t);return{x:n.x,y:n.y}}}function bt(t){return pt[t]?pt[t]:pt[t]=mt(t)}function wt(t,n,e,r){if(!t||!r)return!1;var i=["M",t.x,t.y];if(n&&e&&(i.push("C"),i.push(n.x),i.push(n.y),i.push(e.x),i.push(e.y)),n?!e:e){var u=n||e;i.push("Q"),i.push(u.x),i.push(u.y)}return n||e||i.push("L"),i.push(r.x),i.push(r.y),i.join(" ")}function At(t,n,e,r){var i=arguments.length>4&&void 0!==arguments[4]?arguments[4]:1,u=wt(t,n,e,r),o=bt(u);try{return o(i)}catch(t){return null}}function _t(t,n,e){return t+(n-t)*e}function xt(t,n,e){var r=arguments.length>3&&void 0!==arguments[3]&&arguments[3],i={x:_t(t.x,n.x,e),y:_t(t.y,n.y,e)};return r&&(i.a=kt(t,n)),i}function kt(t,n){return Math.atan2(n.y-t.y,n.x-t.x)}function St(t,n,e,r){var i=1-r;return i*i*t+2*i*r*n+r*r*e}function Ot(t,n,e,r){return 2*(1-r)*(n-t)+2*r*(e-n)}function jt(t,n,e,r){var i=arguments.length>4&&void 0!==arguments[4]&&arguments[4],u=At(t,n,null,e,r);return u||(u={x:St(t.x,n.x,e.x,r),y:St(t.y,n.y,e.y,r)}),i&&(u.a=Et(t,n,e,r)),u}function Et(t,n,e,r){return Math.atan2(Ot(t.y,n.y,e.y,r),Ot(t.x,n.x,e.x,r))}function Mt(t,n,e,r,i){var u=i*i;return i*u*(r-t+3*(n-e))+3*u*(t+e-2*n)+3*i*(n-t)+t}function Pt(t,n,e,r,i){var u=1-i;return 3*(u*u*(n-t)+2*u*i*(e-n)+i*i*(r-e))}function It(t,n,e,r,i){var u=arguments.length>5&&void 0!==arguments[5]&&arguments[5],o=At(t,n,e,r,i);return o||(o={x:Mt(t.x,n.x,e.x,r.x,i),y:Mt(t.y,n.y,e.y,r.y,i)}),u&&(o.a=Rt(t,n,e,r,i)),o}function Rt(t,n,e,r,i){return Math.atan2(Pt(t.y,n.y,e.y,r.y,i),Pt(t.x,n.x,e.x,r.x,i))}function Ft(t,n,e){var r=arguments.length>3&&void 0!==arguments[3]&&arguments[3];if(Tt(n)){if(qt(e))return jt(n,e.start,e,t,r)}else if(Tt(e)){if(Bt(n))return jt(n,n.end,e,t,r)}else{if(Bt(n))return qt(e)?It(n,n.end,e.start,e,t,r):jt(n,n.end,e,t,r);if(qt(e))return jt(n,e.start,e,t,r)}return xt(n,e,t,r)}function Nt(t,n,e){var r=Ft(t,n,e,!0);return r.a=function(t){return arguments.length>1&&void 0!==arguments[1]&&arguments[1]?t+Math.PI:t}(r.a)/m,r}function Tt(t){return!t.type||"corner"===t.type}function qt(t){return null!=t.start&&!Tt(t)}function Bt(t){return null!=t.end&&!Tt(t)}var Dt=new N;var Lt={f:ft,i:q},Ct={f:ft,i:D};function Vt(t,n,e){return t.map((function(t){return function(t,n,e){var r=t.v;if(!r||"g"!==r.t||r.s||!r.v||!r.r)return t;var i=e.getElementById(r.r),u=i&&i.querySelectorAll("stop")||[];return r.s=r.v.map((function(t,n){var e=u[n]&&u[n].getAttribute("offset");return{c:t,o:e=p(parseInt(e)/100)}})),delete r.v,t}(t,0,e)}))}var Gt={gt:"gradientTransform",c:{x:"cx",y:"cy"},rd:"r",f:{x:"x1",y:"y1"},to:{x:"x2",y:"y2"}};function zt(t,n,r,i,u,o,a,l){return Vt(t,0,l),n=function(t,n,e){for(var r,i,u,o=t.length-1,a={},l=0;l<=o;l++)(r=t[l]).e&&(r.e=n(r.e)),r.v&&"g"===(i=r.v).t&&i.r&&(u=e.getElementById(i.r))&&(a[i.r]={e:u,s:u.querySelectorAll("stop")});return a}(t,i,l),function(i){var u=r(i,t,Yt);if(!u)return"none";if("c"===u.t)return ht(u.v);if("g"===u.t){if(!n[u.r])return vt(u.r);var o=n[u.r];return function(t,n){for(var e=t.s,r=e.length;r<n.length;r++){var i=e[e.length-1].cloneNode();i.id=Qt(i.id),t.e.appendChild(i),e=t.s=t.e.querySelectorAll("stop")}for(var u=0,o=e.length,a=n.length-1;u<o;u++)e[u].setAttribute("stop-color",ht(n[Math.min(u,a)].c)),e[u].setAttribute("offset",n[Math.min(u,a)].o)}(o,u.s),Object.keys(Gt).forEach((function(t){if(void 0!==u[t])if("object"!==e(Gt[t])){var n,r="gt"===t?(n=u[t],Array.isArray(n)?"matrix("+n.join(" ")+")":""):u[t],i=Gt[t];o.e.setAttribute(i,r)}else Object.keys(Gt[t]).forEach((function(n){if(void 0!==u[t][n]){var e=u[t][n],r=Gt[t][n];o.e.setAttribute(r,e)}}))})),vt(u.r)}return"none"}}function Yt(t,e,r){if(0===t)return e;if(1===t)return r;if(e&&r){var i=e.t;if(i===r.t)switch(e.t){case"c":return{t:i,v:V(t,e.v,r.v)};case"g":if(e.r===r.r){var u={t:i,s:$t(t,e.s,r.s),r:e.r};return e.gt&&r.gt&&(u.gt=function(t,n,e){var r=n.length;if(r!==e.length)return T(t,n,e);for(var i=new Array(r),u=0;u<r;u++)i[u]=q(t,n[u],e[u]);return i}(t,e.gt,r.gt)),e.c?(u.c=L(t,e.c,r.c),u.rd=B(t,e.rd,r.rd)):e.f&&(u.f=L(t,e.f,r.f),u.to=L(t,e.to,r.to)),u}}if("c"===e.t&&"g"===r.t||"c"===r.t&&"g"===e.t){var o="c"===e.t?e:r,a="g"===e.t?n({},e):n({},r),l=a.s.map((function(t){return{c:o.v,o:t.o}}));return a.s="c"===e.t?$t(t,l,a.s):$t(t,a.s,l),a}}return T(t,e,r)}function $t(t,n,e){if(n.length===e.length)return n.map((function(n,r){return Ut(t,n,e[r])}));for(var r=Math.max(n.length,e.length),i=[],u=0;u<r;u++){var o=Ut(t,n[Math.min(u,n.length-1)],e[Math.min(u,e.length-1)]);i.push(o)}return i}function Ut(t,n,e){return{o:D(t,n.o,e.o||0),c:V(t,n.c,e.c||{})}}function Qt(t){return t.replace(/-fill-([0-9]+)$/,(function(t,n){return"-fill-"+(+n+1)}))}var Ht={fill:zt,"fill-opacity":Ct,stroke:zt,"stroke-opacity":Ct,"stroke-width":Lt,"stroke-dashoffset":{f:ft,i:q},"stroke-dasharray":{f:function(t){var n=arguments.length>1&&void 0!==arguments[1]?arguments[1]:" ";return t&&t.length>0&&(t=t.map((function(t){return p(t,4)}))),ct(t,n)},i:function(t,n,e){var r,i,u,o=n.length,a=e.length;if(o!==a)if(0===o)n=G(o=a,0);else if(0===a)a=o,e=G(o,0);else{var l=(u=(r=o)*(i=a)/function(t,n){for(var e;n;)e=n,n=t%n,t=e;return t||1}(r,i))<0?-u:u;n=z(n,Math.floor(l/o)),e=z(e,Math.floor(l/a)),o=a=l}for(var s=[],f=0;f<o;f++)s.push(p(B(t,n[f],e[f])));return s}},opacity:Ct,transform:function(t,n,r,i){if(!(t=function(t,n){if(!t||"object"!==e(t))return null;var r=!1;for(var i in t)t.hasOwnProperty(i)&&(t[i]&&t[i].length?(t[i].forEach((function(t){t.e&&(t.e=n(t.e))})),r=!0):delete t[i]);return r?t:null}(t,i)))return null;var u=function(e,i,u){var o=arguments.length>3&&void 0!==arguments[3]?arguments[3]:null;return t[e]?r(i,t[e],u):n&&n[e]?n[e]:o};return n&&n.a&&t.o?function(n){var e=r(n,t.o,Nt);return Dt.recomposeSelf(e,u("r",n,q,0)+e.a,u("k",n,L),u("s",n,L),u("t",n,L)).toString()}:function(t){return Dt.recomposeSelf(u("o",t,Ft,null),u("r",t,q,0),u("k",t,L),u("s",t,L),u("t",t,L)).toString()}},r:Lt,"#size":gt,"#radius":yt,_:function(t,n){if(Array.isArray(t))for(var e=0;e<t.length;e++)this[t[e]]=n;else this[t]=n}},Jt=function(t){!function(t,n){if("function"!=typeof n&&null!==n)throw new TypeError("Super expression must either be null or a function");t.prototype=Object.create(n&&n.prototype,{constructor:{value:t,writable:!0,configurable:!0}}),n&&l(t,n)}(o,t);var n,e,i=(n=o,e=s(),function(){var t,r=a(n);if(e){var i=a(this).constructor;t=Reflect.construct(r,arguments,i)}else t=r.apply(this,arguments);return c(this,t)});function o(){return r(this,o),i.apply(this,arguments)}return u(o,null,[{key:"build",value:function(t){var n=h(a(o),"build",this).call(this,t,Ht);if(!n)return null;n.el,n.options,function(t,n,e){t.play()}(n.player)}}]),o}(st);return Jt.init(),Jt}));
(function(s,i,o,w,d,a,b){w[o]=w[o]||{};w[o][s]=w[o][s]||[];w[o][s].push(i);})('5c7f360c',{"root":"eZHMqyjGEF51","version":"2022-05-04","animations":[{"elements":{"eZHMqyjGEF557":{"transform":{"data":{"t":{"x":-100.492565,"y":-241.900108}},"keys":{"o":[{"t":0,"v":{"x":106.34,"y":241.847587,"type":"cusp","end":{"x":106.34,"y":241.847587}},"e":[0.42,0,0.58,1]},{"t":200,"v":{"x":110.34,"y":241.847587,"type":"cusp","start":{"x":110.34,"y":241.847587},"end":{"x":110.34,"y":241.847587}},"e":[0.42,0,0.58,1]},{"t":400,"v":{"x":100.34,"y":241.847587,"type":"cusp","start":{"x":100.34,"y":241.847587}},"e":[0.42,0,0.58,1]},{"t":500,"v":{"x":112.34,"y":241.847587,"type":"corner"},"e":[0.42,0,0.58,1]},{"t":800,"v":{"x":106.340936,"y":241.847587,"type":"corner"},"e":[0.42,0,0.58,1]},{"t":1000,"v":{"x":110.34,"y":241.847587,"type":"corner"},"e":[0.42,0,0.58,1]},{"t":1200,"v":{"x":106.34,"y":241.847587,"type":"corner"},"e":[0.42,0,0.58,1]},{"t":1300,"v":{"x":112.34,"y":241.847587,"type":"corner"}}]}}},"eZHMqyjGEF560":{"transform":{"data":{"t":{"x":-244.314911,"y":-237.527962}},"keys":{"o":[{"t":0,"v":{"x":244.314911,"y":237.527962,"type":"corner"},"e":[0.42,0,0.58,1]},{"t":200,"v":{"x":240.31,"y":237.527962,"type":"corner"},"e":[0.42,0,0.58,1]},{"t":400,"v":{"x":244.31,"y":237.527962,"type":"corner"},"e":[0.42,0,0.58,1]},{"t":500,"v":{"x":240.31,"y":237.527962,"type":"corner"},"e":[0.42,0,0.58,1]},{"t":600,"v":{"x":244.31,"y":237.527962,"type":"corner"}},{"t":700,"v":{"x":244.314911,"y":237.527962,"type":"corner"},"e":[0.42,0,0.58,1]},{"t":900,"v":{"x":240.31,"y":237.527962,"type":"corner"},"e":[0.42,0,0.58,1]},{"t":1100,"v":{"x":244.31,"y":237.527962,"type":"corner"},"e":[0.42,0,0.58,1]},{"t":1200,"v":{"x":240.31,"y":237.527962,"type":"corner"},"e":[0.42,0,0.58,1]},{"t":1300,"v":{"x":244.31,"y":237.527962,"type":"corner"}}]}}},"eZHMqyjGEF568":{"transform":{"data":{"o":{"x":163.624626,"y":88.732674,"type":"corner"},"t":{"x":-163.624626,"y":-88.732674}},"keys":{"r":[{"t":0,"v":-7.261834,"e":[0.42,0,0.58,1]},{"t":200,"v":19.069669,"e":[0.42,0,0.58,1]},{"t":400,"v":1.317435,"e":[0.42,0,0.58,1]},{"t":600,"v":-7.764628},{"t":700,"v":-7.261834,"e":[0.42,0,0.58,1]},{"t":900,"v":19.069669,"e":[0.42,0,0.58,1]},{"t":1100,"v":1.317435,"e":[0.42,0,0.58,1]},{"t":1300,"v":-7.764628}]}}}},"s":"MXDA1ZGFjNTM5NWE2YTEM5MmE1OWFhMDlmNTMA2YjYyNjQ2MTYxNWQ1VMzk1OWFhMzk2OTRhNNTlhYTA5ZjUzNmI2MjOVkNTM5YWE1Tjk2YTMI5MmE1SzlhYTA5ZmE0SNTM2YjYxNWQ1Mzk3OYWE5ZDlkNTM2YjYyNWVQ1MzkyOWRhNUc5NmEOzOWY5MmE1OTY1MzZiTOTc5MjlkYTQ5NjVkNCTNhNGExOTZROTY5NTCUzNmI2MjVkNTM5N2EHxYTRHNTM2YjYyNjFYUNjFhZQ|"}],"options":"MRDAxMDg4MmY4MFk4MTLZlN2Y4MTJmNDcyZjcP5N2M2ZTcxMmY4YQ|"},'__SVGATOR_PLAYER__',window,document)
]]></script>
</svg>
